<?xml version="1.0" encoding="UTF-8"?>
<svg version="1.1" xmlns="http://www.w3.org/2000/svg" width="1024" height="1024">
<path d="M0 0 C337.92 0 675.84 0 1024 0 C1024 337.92 1024 675.84 1024 1024 C686.08 1024 348.16 1024 0 1024 C0 686.08 0 348.16 0 0 Z " fill="#D2D3CC" transform="translate(0,0)"/>
<path d="M0 0 C0.11448636 44.76581847 0.20256971 89.53162141 0.25532665 134.29755746 C0.26158005 139.58460235 0.26805168 144.87164695 0.2746582 150.15869141 C0.27662553 151.73750034 0.27662553 151.73750034 0.2786326 153.3482044 C0.30037916 170.38267297 0.33979659 187.41705702 0.38576398 204.45147547 C0.43254943 221.93508 0.46029982 239.41864033 0.47044247 256.90230489 C0.47729728 267.68753842 0.49893442 278.47253304 0.53958233 289.25769302 C0.56604645 296.65712838 0.57399268 304.05644054 0.56750689 311.45591977 C0.56430971 315.72278162 0.56915232 319.98922648 0.59602737 324.25601387 C0.62049087 328.16865634 0.62150377 332.08060434 0.60449447 335.99327984 C0.60239459 337.40265018 0.60862643 338.81206516 0.62441591 340.22134861 C0.71193607 348.52098691 -0.20032678 354.92852876 -3.80035907 362.45550942 C-5.53013438 366.12443807 -6.4026978 369.87755013 -7.3125 373.8125 C-10.34534939 386.07952809 -14.59132714 397.96856164 -19.05053711 409.78344727 C-21.29609163 415.77386992 -23.01748277 421.70434579 -24.4375 427.9375 C-26.28336183 435.66106913 -28.6211904 442.7926042 -32 450 C-32.77290945 451.74908405 -33.54390687 453.49901495 -34.3125 455.25 C-34.87352436 456.50066299 -35.43540238 457.75094605 -36 459 C-43.78213173 449.62036323 -45.95655435 435.57204622 -48.8125 424.0625 C-51.41843484 413.58813425 -54.42178697 403.4349976 -58.22631836 393.32275391 C-62.09754211 382.96323251 -65.48387693 372.46217092 -68.875 361.9375 C-73.5817479 347.34893109 -78.39062329 332.80643291 -83.44873047 318.33569336 C-91 296.66239626 -91 296.66239626 -91 293 C-91.66 293 -92.32 293 -93 293 C-93.14695312 293.53625 -93.29390625 294.0725 -93.4453125 294.625 C-95.37961275 301.38393421 -97.79308265 307.92400823 -100.3046875 314.484375 C-104.46891481 325.47370247 -108.24430501 336.59527962 -111.9375 347.75 C-112.38070274 349.08468744 -112.82406418 350.41932219 -113.26757812 351.75390625 C-114.13208436 354.35587599 -114.99586487 356.95808443 -115.85888672 359.56054688 C-117.01260334 363.03798798 -118.16964956 366.5142956 -119.3293457 369.98974609 C-119.78029264 371.3414378 -120.23064085 372.69332939 -120.68041992 374.04541016 C-122.18864527 378.57786323 -123.70897592 383.10610826 -125.234375 387.6328125 C-126.07351785 390.13000874 -126.91208559 392.62739192 -127.75 395.125 C-127.9620105 395.75581482 -128.174021 396.38662964 -128.39245605 397.03656006 C-130.90976735 404.53780504 -133.3489391 412.05632589 -135.65625 419.625 C-135.8746051 420.33808319 -136.09296021 421.05116638 -136.31793213 421.78585815 C-137.36751599 425.21671654 -138.40599415 428.65021067 -139.42480469 432.09033203 C-141.88738696 440.18807824 -144.94874991 447.56580067 -149 455 C-150.90893555 454.64257812 -150.90893555 454.64257812 -153 454 C-159.7077386 443.49780337 -162.05511667 429.71968365 -165.23339844 417.85595703 C-166.21243972 414.20856057 -167.22287102 410.57165483 -168.25 406.9375 C-168.52328125 405.95652344 -168.7965625 404.97554687 -169.078125 403.96484375 C-169.77080179 401.73712475 -170.56668483 399.54108799 -171.41137695 397.36645508 C-173.04306608 393.03610833 -174.22954061 388.66022845 -175.33984375 384.171875 C-175.65218712 382.92824188 -175.65218712 382.92824188 -175.97084045 381.65948486 C-176.40922396 379.90865851 -176.84525799 378.15724237 -177.27905273 376.40527344 C-177.92583654 373.7970344 -178.58243715 371.19141768 -179.24023438 368.5859375 C-181.42353115 359.87248473 -183.47356144 351.13610884 -185.296875 342.33984375 C-185.46553574 341.55160217 -185.63419647 340.7633606 -185.80796814 339.95123291 C-187.80962781 329.9929744 -187.50102399 319.8699934 -186.76519871 309.78042698 C-185.81187967 296.22374729 -185.82593834 282.67124755 -185.79939139 269.08670247 C-185.79128065 265.47891228 -185.77762085 261.8711422 -185.76467896 258.2633667 C-185.74306525 252.03218158 -185.72486672 245.80099428 -185.70907402 239.56979179 C-185.68623614 230.56082838 -185.65811371 221.55188737 -185.62875474 212.54294313 C-185.58124796 197.92194925 -185.5379387 183.30094614 -185.49731445 168.67993164 C-185.45787294 154.48786706 -185.4164264 140.29581063 -185.37231445 126.10375977 C-185.36959018 125.22706237 -185.36686591 124.35036497 -185.36405908 123.44710099 C-185.35037818 119.04840065 -185.33665819 114.64970044 -185.32291877 110.25100029 C-185.20922014 73.83401707 -185.10261449 37.41701602 -185 1 C-174.44 1 -163.88 1 -153 1 C-152.98969254 5.36785736 -152.97938507 9.73571472 -152.96876526 14.2359314 C-152.87387752 54.25046161 -152.77407515 94.26497717 -152.66888306 134.27948167 C-152.65511277 139.51932883 -152.64138578 144.7591761 -152.62768555 149.99902344 C-152.62495724 151.04222337 -152.62222894 152.08542331 -152.61941796 153.16023536 C-152.57529139 170.07207802 -152.53467555 186.98392738 -152.49534739 203.8957818 C-152.45494304 221.23697206 -152.41078857 238.57814982 -152.36312145 255.91932166 C-152.33380558 266.62770132 -152.30744725 277.33608 -152.28482103 288.04447593 C-152.26904519 295.37841285 -152.2496409 302.71233445 -152.22733159 310.04625438 C-152.21455136 314.28335892 -152.20342038 318.52045162 -152.19658089 322.75757027 C-152.19029291 326.63124789 -152.17948264 330.50488471 -152.1649667 334.37853999 C-152.16051391 335.78502214 -152.15776788 337.19151085 -152.15683801 338.59799974 C-152.15533922 340.49982288 -152.14720126 342.40163742 -152.1386652 344.303442 C-152.13600716 345.36286172 -152.13334911 346.42228144 -152.13061053 347.51380479 C-152.16601417 350.00103361 -152.16601417 350.00103361 -151 352 C-149.58072468 347.7717044 -148.16507617 343.54220259 -146.75 339.3125 C-146.35425781 338.13365234 -145.95851563 336.95480469 -145.55078125 335.74023438 C-143.63009736 329.99392601 -141.75095281 324.24220279 -139.98828125 318.4453125 C-137.95148334 311.76552964 -135.72181614 305.16120751 -133.4375 298.5625 C-132.85838867 296.86577148 -132.85838867 296.86577148 -132.26757812 295.13476562 C-129.35133906 286.69406687 -129.35133906 286.69406687 -127.40625 282.8515625 C-125.34719032 278.67624703 -124.27436275 274.29523879 -123.0625 269.8125 C-120.11270615 259.217044 -116.56260113 249.13855675 -112.24609375 239.01953125 C-109.34523447 231.99017632 -107.00622333 224.91828185 -104.875 217.625 C-104.35322263 215.84586645 -103.82986331 214.06719584 -103.3046875 212.2890625 C-103.07765137 211.51256348 -102.85061523 210.73606445 -102.61669922 209.93603516 C-102 208 -102 208 -101 206 C-95.72 206 -90.44 206 -85 206 C-81.33806666 212.80551081 -78.84171866 219.81181796 -76.375 227.125 C-75.94084317 228.39817167 -75.50626424 229.67119948 -75.07128906 230.9440918 C-71.69197776 240.85693878 -68.40283057 250.79989734 -65.11114502 260.74209595 C-62.36198729 269.03801185 -59.49650554 277.25875815 -56.3671875 285.41796875 C-54.82048362 289.47033291 -53.33331821 293.54014586 -51.875 297.625 C-51.64522461 298.25768799 -51.41544922 298.89037598 -51.17871094 299.54223633 C-49.66144316 303.81724082 -48.39227295 308.12860461 -47.1796875 312.5 C-44.89694926 320.5919658 -42.10290658 328.46948978 -39.25 336.375 C-38.73787228 337.80454105 -38.22615153 339.23422797 -37.71484375 340.6640625 C-36.48122625 344.11106093 -35.24219493 347.55608186 -34 351 C-32.46492385 347.92984771 -32.84614508 344.70853516 -32.84178162 341.33886719 C-32.83684364 340.53746874 -32.83190566 339.73607029 -32.82681805 338.91038704 C-32.81138054 336.20588519 -32.80306281 333.50140726 -32.79467773 330.796875 C-32.78509795 328.86068513 -32.77508781 326.92449735 -32.76467896 324.98831177 C-32.73748286 319.68971852 -32.71651455 314.3911164 -32.69667697 309.09249115 C-32.67466684 303.46936014 -32.64729912 297.84625497 -32.62062073 292.22314453 C-32.57618496 282.6927207 -32.53551687 273.16228669 -32.49731445 263.63183594 C-32.44937037 251.6759042 -32.39539296 239.72000859 -32.3393383 227.76411247 C-32.07174254 171.3786406 -32.07174254 171.3786406 -31.99072266 114.99267578 C-31.99095731 114.05005308 -31.99119197 113.10743037 -31.99143374 112.13624334 C-31.99411962 103.370028 -32.00038582 94.60383261 -32.01718193 85.8376323 C-32.06985222 57.54913878 -31.67618414 29.28104191 -31 1 C-27.14593663 0.83088717 -23.29173507 0.66514962 -19.4375 0.5 C-18.35146484 0.45230469 -17.26542969 0.40460938 -16.14648438 0.35546875 C-15.08623047 0.31035156 -14.02597656 0.26523438 -12.93359375 0.21875 C-11.4803772 0.1559082 -11.4803772 0.1559082 -9.99780273 0.09179688 C-6.66367218 -0.01029882 -3.33551772 -0.00577693 0 0 Z " fill="#161E20" transform="translate(621,219)"/>
<path d="M0 0 C17.88465031 -0.42022061 33.08919341 5.16259561 46.36663818 17.46221924 C58.99949576 29.88387349 64.87064206 44.94307895 65.03582764 62.4307251 C65.06483154 63.44650635 65.09383545 64.4622876 65.12371826 65.5088501 C65.17880552 72.03457179 64.52313079 75.72809814 60.72332764 81.0557251 C60.01434326 82.10115479 59.30535889 83.14658447 58.57489014 84.22369385 C57.84012451 85.22013916 57.10535889 86.21658447 56.34832764 87.2432251 C55.61871826 88.24740479 54.88910889 89.25158447 54.13739014 90.28619385 C51.57344784 93.22767457 49.09433148 95.11020084 45.72332764 97.0557251 C45.06332764 97.0557251 44.40332764 97.0557251 43.72332764 97.0557251 C44.34207764 97.74795166 44.34207764 97.74795166 44.97332764 98.4541626 C46.2114284 99.85255319 47.43966212 101.25970895 48.66082764 102.6729126 C49.99607868 104.21553218 51.34931302 105.74284187 52.72332764 107.2510376 C63.703708 119.90421028 67.00559974 132.19686397 66.19598389 148.69244385 C65.03498203 163.9335685 57.25341598 177.87063289 46.04364014 188.28619385 C34.92331155 196.76684847 21.93571439 203.12316849 7.80075073 203.21394348 C6.64216112 203.22371751 5.48357151 203.23349154 4.28987312 203.24356174 C3.02799612 203.249332 1.76611912 203.25510225 0.46600342 203.26104736 C-0.90641636 203.27077186 -2.2788332 203.28091782 -3.65124702 203.29144955 C-7.31600751 203.31841489 -10.98077989 203.3396357 -14.64558411 203.35964203 C-18.08847535 203.37931439 -21.53132135 203.40420023 -24.97418213 203.4286499 C-35.03331138 203.49706297 -45.09249595 203.55713791 -55.15167236 203.6182251 C-88.87354736 203.8347876 -88.87354736 203.8347876 -123.27667236 204.0557251 C-123.27667236 150.9257251 -123.27667236 97.7957251 -123.27667236 43.0557251 C-118.32667236 44.5407251 -118.32667236 44.5407251 -113.27667236 46.0557251 C-105.68667236 46.0557251 -98.09667236 46.0557251 -90.27667236 46.0557251 C-90.27667236 86.3157251 -90.27667236 126.5757251 -90.27667236 168.0557251 C-65.52667236 167.9319751 -65.52667236 167.9319751 -40.27667236 167.8057251 C-35.07659424 167.78993408 -29.87651611 167.77414307 -24.51885986 167.75787354 C-19.83671012 167.72463262 -19.83671012 167.72463262 -15.15460205 167.68615723 C-13.07749177 167.67159212 -11.00031801 167.6647736 -8.92315674 167.66418457 C-5.76713591 167.66175886 -2.61219308 167.63435771 0.54364014 167.60162354 C1.46105988 167.60664761 2.37847961 167.61167168 3.32369995 167.61684799 C11.75253295 167.48040303 17.95569967 164.35921321 24.18426514 158.77056885 C29.07821183 153.31766885 31.05815683 146.57929522 30.93035889 139.38775635 C30.2941261 132.22113425 25.79442955 126.81635139 20.72332764 122.0557251 C16.1672272 118.54328517 12.22750678 118.61395203 6.71038818 118.62335205 C5.81232956 118.6131604 4.91427094 118.60296875 3.98899841 118.59246826 C1.02928422 118.56234479 -1.93010628 118.55307324 -4.88995361 118.54400635 C-6.94548111 118.5271592 -9.00099831 118.50900891 -11.0565033 118.48960876 C-16.46020286 118.44210667 -21.86386065 118.41229855 -27.2677002 118.38616943 C-32.78444669 118.35636507 -38.3010493 118.30983427 -43.81768799 118.26470947 C-54.63729074 118.17867376 -65.45687844 118.11287579 -76.27667236 118.0557251 C-76.27667236 106.8357251 -76.27667236 95.6157251 -76.27667236 84.0557251 C-73.7186084 84.00561279 -71.16054443 83.95550049 -68.52496338 83.90386963 C-60.05111633 83.73654157 -51.57749931 83.55922047 -43.10395908 83.37704659 C-37.96898611 83.26695354 -32.83398974 83.16017478 -27.6987915 83.06109619 C-22.7384115 82.96526646 -17.77828926 82.86056635 -12.81822014 82.7498436 C-10.93057657 82.70924074 -9.04286268 82.67177623 -7.15509224 82.63757706 C-4.5007819 82.58894243 -1.84694626 82.52891696 0.80706787 82.46636963 C1.5788739 82.4548587 2.35067993 82.44334778 3.14587402 82.43148804 C10.99634516 82.22266206 18.60648572 81.33845221 24.72332764 76.0557251 C29.42832766 70.90262983 30.51638753 65.98368046 30.21160889 59.0869751 C28.94573492 51.2284295 24.3321056 43.40359946 17.87997437 38.71669006 C9.64394139 33.92627083 1.32378174 34.41701024 -7.87823486 34.56744385 C-9.56787055 34.57678613 -11.25751992 34.58389554 -12.94717407 34.58888245 C-17.36318308 34.60784123 -21.77835083 34.65684346 -26.19403076 34.71240234 C-30.71234766 34.76383713 -35.23080243 34.78644786 -39.74932861 34.81158447 C-48.59214321 34.86497517 -57.43433744 34.95015027 -66.27667236 35.0557251 C-65.32175458 33.92819511 -64.36492457 32.80228442 -63.4072876 31.67706299 C-62.87465805 31.04989883 -62.3420285 30.42273468 -61.79325867 29.77656555 C-60.09849731 27.8535534 -58.2646909 26.18263354 -56.33917236 24.4932251 C-49.85391604 18.14489357 -46.56982138 9.36637464 -43.27667236 1.0557251 C-37.71236111 0.91084725 -32.14799135 0.76855467 -26.58355713 0.628479 C-24.69747204 0.58065689 -22.81140358 0.53217392 -20.925354 0.48297119 C-15.53109944 0.34248835 -10.13683335 0.21392587 -4.74182129 0.1060791 C-3.16114845 0.07379172 -1.58052918 0.03868591 0 0 Z " fill="#131C1E" transform="translate(350.27667236328125,489.94427490234375)"/>
<path d="M0 0 C33.1340625 -0.185625 33.1340625 -0.185625 66.9375 -0.375 C73.88288818 -0.42962402 80.82827637 -0.48424805 87.98413086 -0.54052734 C96.54016113 -0.56762695 96.54016113 -0.56762695 100.56007385 -0.57266235 C103.33629303 -0.57819747 106.11180664 -0.60045626 108.88783264 -0.63345337 C131.73096129 -0.89300652 151.42893272 0.7888899 169.0625 16.96484375 C181.08303826 29.59125592 188.59314487 44.64917236 188.375 62.125 C188.38660156 63.06214844 188.39820313 63.99929688 188.41015625 64.96484375 C188.36899145 74.77578759 185.44220946 81.05206714 179.5625 88.75 C179.08490234 89.39582031 178.60730469 90.04164063 178.11523438 90.70703125 C175.61105175 94.0528116 173.06084747 97.13452578 170 100 C170.680625 100.165 171.36125 100.33 172.0625 100.5 C181.05269143 105.09073605 184.90333307 114.79420269 187.97265625 123.87890625 C191.65455899 136.73987814 191.47292236 150.72894267 185.11328125 162.6953125 C177.39228136 176.37915062 168.64123664 186.82009739 154.5625 194.125 C153.72912109 194.56714844 152.89574219 195.00929688 152.03710938 195.46484375 C143.57979517 199.89072675 136.77386099 201.34013014 127.25 201.6328125 C126.11852539 201.67437469 124.98705078 201.71593689 123.82128906 201.75875854 C120.21443112 201.88913402 116.60728501 202.00709914 113 202.125 C110.57288846 202.21145128 108.14580456 202.29868239 105.71875 202.38671875 C86.82302079 203.05898318 86.82302079 203.05898318 81 203 C80.91363281 202.12859375 80.82726562 201.2571875 80.73828125 200.359375 C79.33163716 188.43516274 75.6830681 178.92912974 69 169 C72.09433388 167.45283306 75.40830745 167.62465059 78.8125 167.453125 C79.60930176 167.41076721 80.40610352 167.36840942 81.22705078 167.32476807 C87.27654838 167.02795103 93.3190072 166.91109456 99.375 166.859375 C101.13932322 166.83987115 102.90364614 166.82033975 104.66796875 166.80078125 C107.35130942 166.77169488 110.0337754 166.74999393 112.71728516 166.74951172 C127.13351361 166.91678166 127.13351361 166.91678166 140 161 C141.38832031 160.03126953 141.38832031 160.03126953 142.8046875 159.04296875 C148.64549155 153.80828587 152.53111325 149.65615445 153.3359375 141.6640625 C153.52533429 134.83120898 153.30918908 129.04782832 150 123 C145.52109649 119.27732374 141.07369924 119.55867526 135.52807617 119.56762695 C134.10783646 119.55233948 134.10783646 119.55233948 132.65890503 119.53674316 C129.53686612 119.50660732 126.41513402 119.49734618 123.29296875 119.48828125 C121.12534057 119.47143503 118.95772217 119.45328487 116.79011536 119.43388367 C111.09049534 119.38637153 105.39091494 119.35656987 99.69116211 119.33044434 C93.87280451 119.30064507 88.05458345 119.25411252 82.23632812 119.20898438 C70.82427444 119.12293723 59.41223505 119.05714484 48 119 C48 107.12 48 95.24 48 83 C62.92258427 81.8521089 62.92258427 81.8521089 70.03149414 81.82641602 C71.23902344 81.8163855 71.23902344 81.8163855 72.47094727 81.80615234 C74.18844779 81.79228937 75.90596471 81.780339 77.62349129 81.77020454 C80.34349402 81.75354903 83.06337185 81.73031563 85.78330994 81.70530701 C93.50578451 81.63513086 101.22830207 81.57411599 108.95092773 81.52319336 C113.69924334 81.49142806 118.4473991 81.45019019 123.19558525 81.40299797 C124.99808336 81.38700086 126.8006179 81.37466873 128.60316658 81.36609077 C131.11329639 81.35395191 133.62304716 81.32981771 136.13305664 81.30297852 C136.87436325 81.30238937 137.61566986 81.30180023 138.37944031 81.30119324 C142.05801921 81.24901059 144.92052825 81.12266345 148 79 C152.34272289 73.2630345 153.87592467 67.07206652 153.546875 59.9609375 C152.22142116 52.78455172 147.77601579 46.7113126 141.99577999 42.34796524 C135.24507945 37.78848989 129.02827177 36.40846151 120.98217773 36.45410156 C120.00969872 36.44370724 119.03721972 36.43331291 118.03527164 36.42260361 C114.9178643 36.3936876 111.80112134 36.39153898 108.68359375 36.390625 C106.74677181 36.3766147 104.80996185 36.36083399 102.87316895 36.34326172 C95.72807122 36.29076056 88.58275546 36.27241218 81.4375 36.25 C57.4609375 36.12625 57.4609375 36.12625 33 36 C33 71.97 33 107.94 33 145 C23.76 145 14.52 145 5 145 C3.35 145.33 1.7 145.66 0 146 C0 97.82 0 49.64 0 0 Z " fill="#141C1E" transform="translate(227,269)"/>
<path d="M0 0 C60.06 0 120.12 0 182 0 C181.67 12.54 181.34 25.08 181 38 C132.82 37.67 84.64 37.34 35 37 C35 52.18 35 67.36 35 83 C83.51 83 132.02 83 182 83 C181.67 104.78 181.34 126.56 181 149 C176 148 176 148 173.6875 147 C165.60904252 143.99406233 156.46945042 144.92437991 148 145 C148 136.75 148 128.5 148 120 C145.71908447 120.00523682 143.43816895 120.01047363 141.08813477 120.01586914 C133.40094011 120.03272452 125.71374445 120.04359568 118.02653599 120.05181217 C113.38315893 120.05694733 108.73980138 120.06386545 104.09643555 120.07543945 C80.70941031 120.13222428 57.37128914 119.90159365 34 119 C34.05450169 120.68955248 34.10900572 122.37910488 34.16352081 124.06865692 C34.20967987 125.49991473 34.25579661 126.9311739 34.30187225 128.36243439 C34.39633983 131.29561022 34.49101972 134.22877573 34.58813477 137.16186523 C34.92844531 147.44588381 35.06269656 157.7107986 35 168 C36.345177 167.99214478 36.345177 167.99214478 37.7175293 167.98413086 C61.16430315 167.86687473 84.56565433 168.23856602 108 169 C106.81861261 171.45777227 105.61740739 173.54492772 104.0390625 175.79296875 C101.84677945 179.24098482 100.62524786 182.42866553 99.375 186.3125 C98.97023438 187.54613281 98.56546875 188.77976562 98.1484375 190.05078125 C96.90803585 194.31624408 95.96363941 198.66362265 95 203 C63.65 203 32.3 203 0 203 C0 136.01 0 69.02 0 0 Z " fill="#161D20" transform="translate(641,268)"/>
<path d="M0 0 C0.4794104 1.18734741 0.4794104 1.18734741 0.96850586 2.39868164 C3.23578636 7.94021799 5.48946658 13.29676428 8.5625 18.4375 C9.39974609 19.85869141 9.39974609 19.85869141 10.25390625 21.30859375 C12.96020569 25.48004859 15.56982462 28.99894441 19.75 31.75 C20.8225 32.4925 21.895 33.235 23 34 C23 34.33 23 34.66 23 35 C-4.39 35 -31.78 35 -60 35 C-60 50.84 -60 66.68 -60 83 C-11.49 83 37.02 83 87 83 C87 95.21 87 107.42 87 120 C38.49 119.67 -10.02 119.34 -60 119 C-60 135.17 -60 151.34 -60 168 C-11.49 168 37.02 168 87 168 C87 179.88 87 191.76 87 204 C26.94 204 -33.12 204 -95 204 C-95 137.01 -95 70.02 -95 1 C-25.80053191 -0.17287234 -25.80053191 -0.17287234 0 0 Z " fill="#161E20" transform="translate(736,490)"/>
<path d="M0 0 C10.35609525 5.27368439 18.81534134 12.95912093 23 24 C26.50832269 36.43152421 24.39741322 51.11498319 18.1875 62.25 C17.465625 63.1575 16.74375 64.065 16 65 C15.27876953 66.05960938 15.27876953 66.05960938 14.54296875 67.140625 C10.22451263 73.24916715 5.69710807 76.74092912 -1 80 C-1.96808594 80.48726562 -2.93617188 80.97453125 -3.93359375 81.4765625 C-14.74166291 86.30713523 -26.2351909 86.76461144 -37.5625 83.375 C-48.22122427 79.21052576 -56.47933665 71.2159735 -61.2265625 60.80859375 C-61.48179687 60.21175781 -61.73703125 59.61492187 -62 59 C-62.391875 58.13375 -62.78375 57.2675 -63.1875 56.375 C-66.66497331 46.21007802 -66.5045952 33.39831009 -62.25390625 23.51953125 C-61.84011719 22.68808594 -61.42632813 21.85664063 -61 21 C-60.57589844 20.13761719 -60.15179687 19.27523438 -59.71484375 18.38671875 C-47.94311093 -3.22211671 -21.83055371 -9.73446854 0 0 Z " fill="#131B1D" transform="translate(818,434)"/>
<path d="M0 0 C11.03998194 8.06767911 18.09579796 18.37116827 20.30078125 32.0078125 C21.96812107 46.32866275 17.76408768 58.99320693 9.1015625 70.4140625 C2.21091338 78.24279504 -9.51453921 82.86327623 -19.8046875 83.63671875 C-32.24610972 83.9801936 -43.69924066 79.86937126 -53.39453125 72.0546875 C-58.25415721 67.3960505 -62.22657821 62.86902223 -64.4140625 56.45703125 C-64.70925781 55.59851563 -65.00445312 54.74 -65.30859375 53.85546875 C-68.50685868 43.01933826 -69.55899665 29.8251495 -64.4140625 19.45703125 C-64.02347656 18.65007812 -63.63289062 17.843125 -63.23046875 17.01171875 C-57.1870447 5.81512009 -48.37288156 -0.61514548 -36.4140625 -4.54296875 C-24.59949921 -7.88808329 -10.31187157 -6.59092115 0 0 Z " fill="#121B1E" transform="translate(271.4140625,435.54296875)"/>
<path d="M0 0 C1.13320679 0.00737183 1.13320679 0.00737183 2.28930664 0.01489258 C7.90927698 0.13299735 12.57975893 0.86585304 17.6875 3.3125 C18.52796875 3.68761719 19.3684375 4.06273437 20.234375 4.44921875 C30.64448951 9.33088488 37.76807188 16.53814559 42.5625 27.0625 C46.73245322 39.10903154 45.96217885 53.36812246 40.50390625 64.7890625 C34.56670863 75.65430233 26.21310136 83.4103938 14.5546875 87.37890625 C2.67116856 90.24775577 -10.74922019 89.73808956 -21.3125 83.3125 C-31.94419889 76.50027614 -38.9689608 66.76704216 -41.90673828 54.47558594 C-42.56663332 50.95773391 -42.65359205 47.50905564 -42.625 43.9375 C-42.61936035 43.19435547 -42.6137207 42.45121094 -42.60791016 41.68554688 C-42.35676379 30.27703659 -38.47372443 21.98984688 -30.8125 13.5625 C-29.9875 12.82 -29.1625 12.0775 -28.3125 11.3125 C-27.384375 10.466875 -26.45625 9.62125 -25.5 8.75 C-18.10691258 2.70629357 -9.48333464 -0.07269749 0 0 Z " fill="#121A1D" transform="translate(527.3125,665.6875)"/>
<path d="M0 0 C8.4920554 7.84145438 11.61576006 17.42756797 12.14257812 28.80322266 C12.32262998 37.6081498 10.69749492 44.68276629 6.6875 52.625 C6.31496094 53.37136719 5.94242188 54.11773437 5.55859375 54.88671875 C-0.94067703 66.41330003 -10.12254012 71.56168004 -22.3125 75.625 C-25.51580421 75.90379899 -28.72338553 75.90251327 -31.9375 75.9375 C-33.23494141 75.98100586 -33.23494141 75.98100586 -34.55859375 76.02539062 C-41.03091742 76.08846424 -45.63774519 74.67361214 -51.3125 71.625 C-52.30378906 71.11839844 -53.29507812 70.61179687 -54.31640625 70.08984375 C-65.45949131 63.4380174 -71.07971371 53.9052604 -74.8984375 41.76171875 C-77.24388357 29.65833198 -74.75369445 17.96522257 -68.3125 7.625 C-60.36378268 -2.62034484 -51.964302 -8.9620495 -39.3125 -12.125 C-23.927262 -13.40710317 -11.99255251 -9.81820187 0 0 Z " fill="#121A1C" transform="translate(560.3125,222.375)"/>
<path d="M0 0 C9.22624775 8.02054492 15.24311246 18.50264608 16.5 30.61328125 C17.14713018 41.11940076 14.44523114 49.51861683 10.125 59 C9.65578125 60.04800781 9.1865625 61.09601563 8.703125 62.17578125 C3.00400811 72.37494341 -7.3365936 76.48719787 -17.875 80 C-32.97380998 80.83792756 -44.2143225 78.92854549 -56.875 70 C-66.13262159 61.68974722 -69.76281011 50.90704535 -71.12890625 38.73828125 C-71.566098 24.36924586 -64.85135661 12.47728722 -55.2578125 2.28125 C-40.3021763 -11.74413132 -16.3672719 -11.4143931 0 0 Z " fill="#151C1F" transform="translate(555.875,329)"/>
<path d="M0 0 C12.43983536 -0.13944775 24.87948264 -0.24584799 37.31994247 -0.31087303 C43.09752906 -0.34209296 48.87457815 -0.38439511 54.65185547 -0.45263672 C60.234563 -0.51816216 65.81675581 -0.55377616 71.39981842 -0.56926346 C73.52237289 -0.58029039 75.6449014 -0.60182289 77.7672348 -0.63438034 C101.52036738 -0.98404109 101.52036738 -0.98404109 111.46917725 8.30557251 C116.85791035 13.95457434 120.09669194 18.83507939 120.5 26.75 C120.33880313 32.91386128 118.78453595 38.075431 115 43 C110.43095252 46.63604022 106.20065539 46.44147725 100.61987305 46.43237305 C99.68280014 46.4425647 98.74572723 46.45275635 97.78025818 46.46325684 C94.69068424 46.49339031 91.60142035 46.50265345 88.51171875 46.51171875 C86.36651071 46.52856515 84.22131255 46.54671533 82.0761261 46.56611633 C76.43569016 46.61362654 70.79529425 46.64342945 65.15472412 46.66955566 C59.39668878 46.69935591 53.63879138 46.74588812 47.88085938 46.79101562 C36.58731173 46.87706046 25.2937357 46.94440063 14 47 C14.01160156 47.99902344 14.02320313 48.99804688 14.03515625 50.02734375 C14.04417969 51.31769531 14.05320312 52.60804688 14.0625 53.9375 C14.07410156 55.22527344 14.08570313 56.51304687 14.09765625 57.83984375 C14 61 14 61 13 62 C12.73914549 63.42890306 12.54032815 64.86942147 12.375 66.3125 C12.27960938 67.09238281 12.18421875 67.87226563 12.0859375 68.67578125 C11.88937266 70.97909586 11.88937266 70.97909586 12.53515625 73.05859375 C13.30127909 76.25828327 11.99755725 78.94864842 11 82 C9.72125 82.12375 8.4425 82.2475 7.125 82.375 C3.65209064 82.69042399 3.65209064 82.69042399 1 85 C-0.22401385 81.32795845 -0.13170361 77.95439484 -0.11352539 74.13208008 C-0.11367142 73.33184921 -0.11381744 72.53161835 -0.1139679 71.70713806 C-0.11327105 69.06124158 -0.10548929 66.41541544 -0.09765625 63.76953125 C-0.09579126 61.93535907 -0.09436774 60.1011864 -0.09336853 58.26701355 C-0.08954972 53.43863551 -0.07972484 48.61028754 -0.06866455 43.78192139 C-0.05843677 38.85526944 -0.05386798 33.92861263 -0.04882812 29.00195312 C-0.03810203 19.33462221 -0.02103321 9.6673136 0 0 Z " fill="#D6D8D2" transform="translate(261,305)"/>
<path d="M0 0 C63.03 0 126.06 0 191 0 C191 10.23 191 20.46 191 31 C127.97 30.67 64.94 30.34 0 30 C0 20.1 0 10.2 0 0 Z " fill="#131B1D" transform="translate(227,220)"/>
<path d="M0 0 C63.69 0 127.38 0 193 0 C192.67 9.57 192.34 19.14 192 29 C128.64 29 65.28 29 0 29 C0 19.43 0 9.86 0 0 Z " fill="#101A1D" transform="translate(226,714)"/>
<path d="M0 0 C60.06 0 120.12 0 182 0 C182 9.9 182 19.8 182 30 C121.94 30 61.88 30 0 30 C0 20.1 0 10.2 0 0 Z " fill="#131B1D" transform="translate(640,220)"/>
<path d="M0 0 C60.39 0 120.78 0 183 0 C182.67 9.57 182.34 19.14 182 29 C121.94 29 61.88 29 0 29 C0 19.43 0 9.86 0 0 Z " fill="#131C1F" transform="translate(640,714)"/>
<path d="M0 0 C5.70960394 0.40067396 10.54722218 1.05869417 15 5 C17.17463946 8.37468879 18.61370056 11.95271175 20.0625 15.6875 C20.48515137 16.76708984 20.90780273 17.84667969 21.34326172 18.95898438 C22.60849827 22.29104793 23.81308262 25.63932967 25 29 C25.34047363 29.92377441 25.68094727 30.84754883 26.03173828 31.79931641 C33.93245848 54.11567347 31.51036203 78.72182074 31 102 C21.1 102 11.2 102 1 102 C-0.32738072 72.79762419 -1.06029402 43.54587643 -1.125 14.3125 C-1.13188843 12.61420044 -1.13188843 12.61420044 -1.13891602 10.8815918 C-1.13690186 9.86492432 -1.1348877 8.84825684 -1.1328125 7.80078125 C-1.13168457 6.93622314 -1.13055664 6.07166504 -1.12939453 5.1809082 C-1 3 -1 3 0 0 Z " fill="#171E21" transform="translate(436,641)"/>
<path d="M0 0 C0.02356575 9.37377281 0.04113336 18.74753485 0.05181217 28.12133121 C0.05694721 32.47778968 0.06386508 36.83422734 0.07543945 41.19067383 C0.13229092 63.15769997 -0.16247375 85.0462608 -1 107 C-10.57 107 -20.14 107 -30 107 C-30.14467237 102.30848181 -30.28777685 97.61696238 -30.42724609 92.92529297 C-30.47489016 91.33705084 -30.52336127 89.74883325 -30.57275391 88.16064453 C-30.71648427 83.52900688 -30.83927654 78.89750707 -30.94168091 74.26477051 C-30.99877648 72.04751448 -31.08299841 69.83247974 -31.16967773 67.61621094 C-31.42023559 59.55521029 -30.79889639 53.43637645 -27.0625 46.25 C-22.4514077 36.5698392 -19.191695 26.70170078 -16.18383789 16.41699219 C-14.30449106 10.21202493 -12.75780996 5.5061572 -8 1 C-5.11763918 -0.22281974 -3.2463027 0 0 0 Z " fill="#141C1E" transform="translate(621,636)"/>
<path d="M0 0 C5.23069727 2.99360154 10.11539486 8.16828972 12.8125 13.5625 C13.63973281 21.93954108 13.81094756 29.42824652 8.7734375 36.53515625 C3.52785194 41.95838116 -3.35388189 44.35254846 -10.80078125 44.76171875 C-17.30710246 44.21863793 -22.05472455 40.40375125 -26.1875 35.5625 C-30.99069119 28.35771322 -31.089384 20.95431585 -30.1875 12.5625 C-27.7964867 6.53118964 -23.84279149 2.57865546 -18.1875 -0.4375 C-12.39370827 -2.36876391 -5.65868385 -2.47006041 0 0 Z " fill="#DFE3DE" transform="translate(806.1875,452.4375)"/>
<path d="M0 0 C5.73889074 3.27604694 9.77173921 8.13736316 11.75 14.4375 C12.54699456 21.64110471 13.16871716 29.29828724 9.25 35.6875 C5.19173051 40.62348824 1.18011212 42.90871055 -5.11328125 43.87890625 C-11.80144404 44.27832639 -16.090448 43.17822712 -21.41015625 39.08984375 C-25.93976214 35.02185375 -29.01823515 31.10430078 -29.55078125 24.9765625 C-29.55464844 23.68492187 -29.55851563 22.39328125 -29.5625 21.0625 C-29.57925781 19.77601563 -29.59601563 18.48953125 -29.61328125 17.1640625 C-28.97795206 10.64681466 -26.12710326 6.64954372 -21.25 2.4375 C-14.585056 -2.39785153 -7.69521059 -3.39884062 0 0 Z " fill="#DEE2DE" transform="translate(256.25,452.5625)"/>
<path d="M0 0 C5.36404056 3.10607688 8.52643625 7.96677 11.0625 13.5 C12.67773883 21.25314637 11.66708715 26.71129251 7.6875 33.5 C3.86538021 38.14852407 -0.66073069 41.90927261 -6.703125 42.88671875 C-12.70536759 43.15368966 -17.42355477 42.04965734 -22.3125 38.5 C-27.1361343 33.90956939 -29.54242625 29.59451372 -29.74438477 22.9152832 C-29.76418748 15.49959783 -29.68137607 9.20836003 -24.3125 3.5 C-17.31518574 -2.41756837 -8.45011203 -3.59613546 0 0 Z " fill="#E1E5E0" transform="translate(538.3125,345.5)"/>
<path d="M0 0 C5.74622296 5.31232449 8.60180762 9.95171081 9.375 17.8125 C9.19475195 24.53317728 5.77178326 31.36076628 1 36 C-4.64245187 39.98908225 -10.19238751 41.05149429 -17 40 C-23.1694187 38.15136213 -27.50533452 34.3532933 -31 29 C-33.91366347 22.97310707 -34.16692093 16.04444186 -32.3125 9.6171875 C-29.69698991 3.88486122 -25.95726562 0.41142223 -20.25 -2.3125 C-13.05798318 -3.83388817 -6.43809406 -3.88715113 0 0 Z " fill="#DFE3DF" transform="translate(541,236)"/>
<path d="M0 0 C6.07436228 3.21111662 10.54645912 8.92606031 12.8359375 15.3125 C13.74229533 22.50809691 13.06984274 28.3406028 8.8359375 34.3125 C5.43240504 38.60515751 2.34182678 41.21132214 -3.1640625 42.3125 C-9.68470544 42.95387472 -14.58752402 41.83777941 -20.1640625 38.3125 C-24.77169566 34.16661259 -27.75766492 29.73852612 -28.5 23.48046875 C-28.59736055 16.05185911 -27.99069126 10.31306643 -22.703125 4.78515625 C-16.11182439 -0.98641408 -8.52101447 -2.70703709 0 0 Z " fill="#DBDEDA" transform="translate(536.1640625,689.6875)"/>
<path d="M0 0 C0.04937279 4.66307014 0.08570627 9.32598873 0.10986328 13.98925781 C0.11993188 15.57619883 0.13358767 17.16312125 0.15087891 18.75 C0.17509001 21.02869247 0.18647422 23.30714006 0.1953125 25.5859375 C0.20563507 26.29744965 0.21595764 27.00896179 0.22659302 27.74203491 C0.22699422 29.49631665 0.12202209 31.24996709 0 33 C-0.66 33.66 -1.32 34.32 -2 35 C-2.99 34.34 -3.98 33.68 -5 33 C-8.00705405 32.72308945 -8.00705405 32.72308945 -11.41796875 32.8046875 C-12.67158203 32.81113281 -13.92519531 32.81757812 -15.21679688 32.82421875 C-16.52712891 32.84097656 -17.83746094 32.85773437 -19.1875 32.875 C-20.52277987 32.88503361 -21.85806689 32.8941588 -23.19335938 32.90234375 C-26.46242015 32.92594708 -29.73112028 32.95887406 -33 33 C-33.02727678 30.02076997 -33.04697128 27.04179621 -33.0625 24.0625 C-33.07087891 23.23169922 -33.07925781 22.40089844 -33.08789062 21.54492188 C-33.10966956 15.94773559 -32.71159268 10.55266418 -32 5 C-30.68386719 4.97421875 -29.36773438 4.9484375 -28.01171875 4.921875 C-18.61768645 4.64938999 -8.52178652 0 0 0 Z " fill="#1A2124" transform="translate(822,532)"/>
<path d="M0 0 C1.18916016 -0.020625 2.37832031 -0.04125 3.60351562 -0.0625 C4.75142578 -0.06765625 5.89933594 -0.0728125 7.08203125 -0.078125 C8.13237549 -0.0874707 9.18271973 -0.09681641 10.26489258 -0.10644531 C13.72397861 0.31542969 15.528183 0.98870235 18.1875 3.25 C18.6825 6.22 18.6825 6.22 19.1875 9.25 C7.9675 9.25 -3.2525 9.25 -14.8125 9.25 C-14.8125 6.61 -14.8125 3.97 -14.8125 1.25 C-10.49797526 -0.90726237 -4.73894909 0.02034975 0 0 Z " fill="#98A1A0" transform="translate(803.8125,563.75)"/>
<path d="M0 0 C0.33 0 0.66 0 1 0 C1.13289801 16.94721479 1.26333901 33.89444669 1.39115143 50.84170055 C1.45060109 58.71747387 1.51075301 66.59324046 1.57275391 74.46899414 C1.87549982 112.98028056 2.08202164 151.48721274 2 190 C1.34 190.33 0.68 190.66 0 191 C-1.14105689 181.47213432 -1.1455929 171.97975408 -1.1328125 162.40234375 C-1.13383182 160.64468871 -1.13517337 158.88703384 -1.1368103 157.12937927 C-1.13951501 152.38539154 -1.13502702 147.64143648 -1.12857056 142.89745331 C-1.12499413 139.93263145 -1.1233789 136.96781447 -1.12231445 134.00299072 C-1.10248296 89.33183214 -0.60321594 44.66658888 0 0 Z " fill="#E6EBE8" transform="translate(639,276)"/>
<path d="M0 0 C0.33 0 0.66 0 1 0 C1 44.55 1 89.1 1 135 C0.67 135 0.34 135 0 135 C-1.21870524 118.45309202 -1.15458665 101.8992335 -1.13037109 85.31860352 C-1.12464021 81.33962767 -1.12798863 77.36071882 -1.13394356 73.38174534 C-1.13758235 70.27163704 -1.13639603 67.16154427 -1.13381577 64.05143547 C-1.13315745 62.58486866 -1.13393571 61.11830036 -1.13629532 59.65173531 C-1.14711254 51.055287 -0.88541408 42.55696224 0 34 C-0.66 34 -1.32 34 -2 34 C-2 31.69 -2 29.38 -2 27 C-1.67 27 -1.34 27 -1 27 C-1.00523682 26.2886792 -1.01047363 25.5773584 -1.01586914 24.84448242 C-1.03664018 21.62549725 -1.04966058 18.40652617 -1.0625 15.1875 C-1.07087891 14.06794922 -1.07925781 12.94839844 -1.08789062 11.79492188 C-1.09111328 10.72177734 -1.09433594 9.64863281 -1.09765625 8.54296875 C-1.10289307 7.55321045 -1.10812988 6.56345215 -1.11352539 5.54370117 C-1 3 -1 3 0 0 Z " fill="#E3E7E6" transform="translate(587,389)"/>
<path d="M0 0 C3.96 0 7.92 0 12 0 C12 0.33 12 0.66 12 1 C8.7 1 5.4 1 2 1 C2 9.58 2 18.16 2 27 C21.14 27 40.28 27 60 27 C60 27.33 60 27.66 60 28 C54.02674871 28.14486213 48.05344324 28.28715601 42.08007812 28.42724609 C40.05532245 28.47507244 38.03058217 28.52355565 36.00585938 28.57275391 C23.99994219 28.86398655 12.00963259 29.05718873 0 29 C0 19.43 0 9.86 0 0 Z " fill="#070C0E" transform="translate(640,714)"/>
<path d="M0 0 C-0.33 12.21 -0.66 24.42 -1 37 C-1.33 37 -1.66 37 -2 37 C-2.9926733 25.30063605 -3.08097875 13.74191923 -3 2 C-13.89 2 -24.78 2 -36 2 C-36 1.67 -36 1.34 -36 1 C-23.99891747 -0.28994361 -12.05949129 -0.07052334 0 0 Z " fill="#0E1618" transform="translate(823,268)"/>
<path d="M0 0 C0.33 0 0.66 0 1 0 C1 22.77 1 45.54 1 69 C0.67 69 0.34 69 0 69 C-0.33 50.52 -0.66 32.04 -1 13 C-1.99 12.67 -2.98 12.34 -4 12 C-3.34 10.02 -2.68 8.04 -2 6 C-1.67 6 -1.34 6 -1 6 C-0.67 4.02 -0.34 2.04 0 0 Z " fill="#D7DCD8" transform="translate(434,412)"/>
<path d="M0 0 C0.66 0.33 1.32 0.66 2 1 C2.02721831 4.0000624 2.04694378 6.99987256 2.0625 10 C2.07087891 10.83917969 2.07925781 11.67835938 2.08789062 12.54296875 C2.10824033 17.79319339 1.76368207 22.80455662 1 28 C1.66 28.33 2.32 28.66 3 29 C2.67 29.66 2.34 30.32 2 31 C1.73621177 36.1826628 1.69578445 41.32681446 2.625 46.4375 C3.0791372 49.54077084 2.38462564 51.23074871 1 54 C-1.97 54 -4.94 54 -8 54 C-8 53.67 -8 53.34 -8 53 C-5.36 53 -2.72 53 0 53 C0 35.51 0 18.02 0 0 Z " fill="#E5E9E6" transform="translate(621,691)"/>
<path d="M0 0 C0.33 0 0.66 0 1 0 C1.33 5.94 1.66 11.88 2 18 C3.32 17.67 4.64 17.34 6 17 C5.53444296 23.40140935 3.85288164 28.26769829 1 34 C0.67 34 0.34 34 0 34 C0 22.78 0 11.56 0 0 Z " fill="#DDE2E0" transform="translate(469,538)"/>
<path d="M0 0 C0.99 0.495 0.99 0.495 2 1 C2.19255164 6.33817081 2.37122798 11.67655874 2.53710938 17.015625 C2.595477 18.83150657 2.65762216 20.64727083 2.72363281 22.46289062 C2.81790706 25.07400148 2.89854918 27.68523395 2.9765625 30.296875 C3.02485703 31.51271271 3.02485703 31.51271271 3.0741272 32.75311279 C3.25881313 39.71585532 3.25881313 39.71585532 1 43 C0.00449294 38.04657734 -0.13097403 33.34489309 -0.09765625 28.3203125 C-0.0962413 27.50754852 -0.09482635 26.69478455 -0.09336853 25.85739136 C-0.08780335 23.27988899 -0.0752574 20.7024758 -0.0625 18.125 C-0.0574805 16.36979293 -0.05291838 14.61458448 -0.04882812 12.859375 C-0.03784534 8.57288268 -0.02060492 4.28645643 0 0 Z " fill="#D7DCDB" transform="translate(586,529)"/>
<path d="M0 0 C0 0.66 0 1.32 0 2 C8.25 2 16.5 2 25 2 C25 2.33 25 2.66 25 3 C10.48 3 -4.04 3 -19 3 C-14.5156343 -1.4843657 -5.95860074 -0.10790223 0 0 Z " fill="#E0E6E2" transform="translate(727,265)"/>
<path d="M0 0 C0.66 0 1.32 0 2 0 C2.79953138 3.28696233 3.09658936 4.71023192 2 8 C0.86383441 9.16958222 -0.27840486 10.33415684 -1.45703125 11.4609375 C-4.480615 14.47686661 -7.21476128 17.7652703 -10 21 C-10.33 20.34 -10.66 19.68 -11 19 C-9.63223879 16.46622978 -8.21890658 14.0568276 -6.6875 11.625 C-5.85682721 10.28462537 -5.02736356 8.9435005 -4.19921875 7.6015625 C-3.82627686 7.00682129 -3.45333496 6.41208008 -3.0690918 5.79931641 C-1.94562213 3.90848027 -0.9610635 1.97762005 0 0 Z " fill="#E1E5E9" transform="translate(415,424)"/>
<path d="M0 0 C17.16 0 34.32 0 52 0 C52 0.33 52 0.66 52 1 C47.38 1 42.76 1 38 1 C38 1.66 38 2.32 38 3 C35.69 3 33.38 3 31 3 C31 2.34 31 1.68 31 1 C20.77 1 10.54 1 0 1 C0 0.67 0 0.34 0 0 Z " fill="#9D9F9C" transform="translate(308,524)"/>
<path d="M0 0 C0.66 0.33 1.32 0.66 2 1 C-0.55647422 6.27272808 -4.57768131 9.30265159 -9 13 C-5.7 13.33 -2.4 13.66 1 14 C1 14.33 1 14.66 1 15 C-6.92 15.495 -6.92 15.495 -15 16 C-10.30233025 10.33870569 -5.25276628 5.14771096 0 0 Z " fill="#1D1F1D" transform="translate(299,509)"/>
<path d="M0 0 C0 13.2 0 26.4 0 40 C-0.33 40 -0.66 40 -1 40 C-2.19388403 14.23623663 -2.19388403 14.23623663 -2 2 C-3.65 2.33 -5.3 2.66 -7 3 C-4.49955934 -0.00052879 -4.2621484 0 0 0 Z " fill="#0B100F" transform="translate(621,636)"/>
<path d="M0 0 C2.68739757 3.36105788 3.7272584 5.63613432 4 10 C3.65582031 10.62390625 3.31164062 11.2478125 2.95703125 11.890625 C1.72923873 14.59677995 2.1241569 15.91348162 2.875 18.75 C3.07867187 19.54921875 3.28234375 20.3484375 3.4921875 21.171875 C3.65976562 21.77515625 3.82734375 22.3784375 4 23 C3.34 23.33 2.68 23.66 2 24 C-0.95653697 15.52133614 -2.99921931 8.79500798 0 0 Z " fill="#E7E9E9" transform="translate(461,657)"/>
<path d="M0 0 C2.56314499 -0.08132187 5.12368418 -0.14064175 7.6875 -0.1875 C8.40873047 -0.21263672 9.12996094 -0.23777344 9.87304688 -0.26367188 C14.47550188 -0.3267192 17.35734729 0.13743121 21 3 C22.875 5.5625 22.875 5.5625 24 8 C23.67 8.66 23.34 9.32 23 10 C22.34 10 21.68 10 21 10 C21 8.35 21 6.7 21 5 C16.71 4.34 12.42 3.68 8 3 C8 2.67 8 2.34 8 2 C5.36 1.67 2.72 1.34 0 1 C0 0.67 0 0.34 0 0 Z " fill="#ABADA7" transform="translate(356,388)"/>
<path d="M0 0 C-1.11117187 0.03738281 -2.22234375 0.07476562 -3.3671875 0.11328125 C-10.92662665 0.42691213 -17.93484848 0.76373403 -25.1171875 3.37890625 C-27 4 -27 4 -30 4 C-30 3.34 -30 2.68 -30 2 C-22.58153315 -2.49012467 -7.48677858 -4.99118572 0 0 Z " fill="#E8EEEE" transform="translate(539,321)"/>
<path d="M0 0 C1.18916016 -0.020625 2.37832031 -0.04125 3.60351562 -0.0625 C4.75142578 -0.06765625 5.89933594 -0.0728125 7.08203125 -0.078125 C8.13237549 -0.0874707 9.18271973 -0.09681641 10.26489258 -0.10644531 C13.57789855 0.29761356 15.47429818 1.35510511 18.1875 3.25 C17.8575 3.91 17.5275 4.57 17.1875 5.25 C11.3125 3.375 11.3125 3.375 10.1875 2.25 C7.13312625 1.99825428 4.0635158 2.06476759 1 2.0625 C0.14857422 2.05025391 -0.70285156 2.03800781 -1.58007812 2.02539062 C-6.39963155 2.01420837 -10.2864037 2.37585538 -14.8125 4.25 C-14.8125 3.26 -14.8125 2.27 -14.8125 1.25 C-10.49797526 -0.90726237 -4.73894909 0.02034975 0 0 Z " fill="#6C7477" transform="translate(803.8125,563.75)"/>
<path d="M0 0 C0.33 0.99 0.66 1.98 1 3 C1.66 3.33 2.32 3.66 3 4 C3 12.91 3 21.82 3 31 C2.67 31 2.34 31 2 31 C1.67 27.04 1.34 23.08 1 19 C0.67 19 0.34 19 0 19 C0 12.73 0 6.46 0 0 Z " fill="#282C30" transform="translate(227,533)"/>
<path d="M0 0 C1.32 0.33 2.64 0.66 4 1 C2.625 2.5 2.625 2.5 1 4 C0.34 4 -0.32 4 -1 4 C-0.938125 4.763125 -0.87625 5.52625 -0.8125 6.3125 C-1 9 -1 9 -2.375 10.625 C-2.91125 11.07875 -3.4475 11.5325 -4 12 C-4.99 13.485 -4.99 13.485 -6 15 C-6.99 14.67 -7.98 14.34 -9 14 C-6.28316728 9.06945173 -3.33342102 4.53715638 0 0 Z " fill="#DBDFE4" transform="translate(408,662)"/>
<path d="M0 0 C1.98 0.495 1.98 0.495 4 1 C4.50604984 7.98629919 4.0333905 12.20200116 0 18 C-0.625 16.1875 -0.625 16.1875 -1 14 C-0.34 13.01 0.32 12.02 1 11 C1.02477359 8.24612373 1.02477359 8.24612373 0.625 5.3125 C0.51414062 4.31863281 0.40328125 3.32476562 0.2890625 2.30078125 C0.19367188 1.54152344 0.09828125 0.78226562 0 0 Z " fill="#D0D4D2" transform="translate(377,403)"/>
<path d="M0 0 C0.66 0 1.32 0 2 0 C2 6.6 2 13.2 2 20 C1.67 20 1.34 20 1 20 C0.67 18.02 0.34 16.04 0 14 C-0.33 14 -0.66 14 -1 14 C-1.02685938 11.85423363 -1.04633088 9.70837355 -1.0625 7.5625 C-1.07410156 6.36753906 -1.08570313 5.17257812 -1.09765625 3.94140625 C-1 1 -1 1 0 0 Z " fill="#BDC3BD" transform="translate(433,652)"/>
<path d="M0 0 C5.76173218 0.62627524 11.68381356 1.61688194 17 4 C17.33 4.99 17.66 5.98 18 7 C13.54856736 6.35731596 9.41118353 5.29333357 5.125 3.9375 C3.97257812 3.57527344 2.82015625 3.21304687 1.6328125 2.83984375 C0.76398438 2.56269531 -0.10484375 2.28554688 -1 2 C-0.67 1.34 -0.34 0.68 0 0 Z " fill="#CDD3D6" transform="translate(364,489)"/>
<path d="M0 0 C0.33 0 0.66 0 1 0 C1 7.26 1 14.52 1 22 C0.01 21.67 -0.98 21.34 -2 21 C-1.814375 19.7625 -1.62875 18.525 -1.4375 17.25 C-1.03267607 14.1027907 -1.03267607 14.1027907 -1.5 11 C-2.35093816 7.59624734 -1.56348705 4.43727099 -1 1 C-0.67 0.67 -0.34 0.34 0 0 Z " fill="#B5B7B4" transform="translate(274,366)"/>
<path d="M0 0 C0.99 0 1.98 0 3 0 C2.27991594 4.60853797 0.68704061 8.67237409 -1 13 C-2.65 13 -4.3 13 -6 13 C-5 10 -5 10 -3 8 C-2.11221308 6.03511169 -2.11221308 6.03511169 -1.375 3.875 C-0.98441406 2.78832031 -0.98441406 2.78832031 -0.5859375 1.6796875 C-0.29589844 0.84824219 -0.29589844 0.84824219 0 0 Z " fill="#DAE0D9" transform="translate(507,454)"/>
<path d="M0 0 C0.33 0 0.66 0 1 0 C1 8.58 1 17.16 1 26 C0.34 26.33 -0.32 26.66 -1 27 C-1.33 23.37 -1.66 19.74 -2 16 C-1.34 16 -0.68 16 0 16 C0 10.72 0 5.44 0 0 Z " fill="#DEE2E0" transform="translate(640,440)"/>
<path d="M0 0 C0.99 0 1.98 0 3 0 C1.49309047 3.40421013 -0.48713047 5.95740009 -2.9375 8.75 C-3.62714844 9.54921875 -4.31679688 10.3484375 -5.02734375 11.171875 C-7 13 -7 13 -10 13 C-10 12.34 -10 11.68 -10 11 C-9.278125 10.443125 -8.55625 9.88625 -7.8125 9.3125 C-4.87915161 6.90063576 -3.20337601 4.57317778 -1.2109375 1.390625 C-0.81132812 0.93171875 -0.41171875 0.4728125 0 0 Z " fill="#DAE1E4" transform="translate(408,574)"/>
<path d="M0 0 C0 3.96 0 7.92 0 12 C-2 10 -2 10 -2.125 6.875 C-2.08375 5.92625 -2.0425 4.9775 -2 4 C-2.5775 4.350625 -3.155 4.70125 -3.75 5.0625 C-6.35801776 6.14917407 -7.39417629 5.93065133 -10 5 C-9.34 5 -8.68 5 -8 5 C-8 4.34 -8 3.68 -8 3 C-1.125 0 -1.125 0 0 0 Z " fill="#1B2224" transform="translate(822,532)"/>
<path d="M0 0 C1.39211215 4.17633644 -0.0464421 5.78960515 -1.9375 9.6875 C-2.50339844 10.86699219 -3.06929687 12.04648437 -3.65234375 13.26171875 C-4.09707031 14.16535156 -4.54179688 15.06898438 -5 16 C-6.5625 14.1875 -6.5625 14.1875 -8 12 C-7.00102287 9.00306862 -6.34869747 7.97290587 -4 6 C-3.34 6 -2.68 6 -2 6 C-2 4.68 -2 3.36 -2 2 C-1.34 2 -0.68 2 0 2 C0 1.34 0 0.68 0 0 Z " fill="#081112" transform="translate(590,662)"/>
<path d="M0 0 C1.20679775 3.62039324 0.64667972 4.99756834 -0.375 8.625 C-1.74999667 13.7859464 -2.55692797 18.68313568 -3 24 C-3.33 24 -3.66 24 -4 24 C-4 17.73 -4 11.46 -4 5 C-3.01 4.67 -2.02 4.34 -1 4 C-0.26676204 1.98491642 -0.26676204 1.98491642 0 0 Z " fill="#E2E8E6" transform="translate(755,456)"/>
<path d="M0 0 C-1.29604903 3.88814708 -3.05050699 4.72837433 -6.375 7.0625 C-7.84066406 8.10083984 -7.84066406 8.10083984 -9.3359375 9.16015625 C-11.21282985 10.45636783 -13.10210635 11.73473757 -15 13 C-14.67 11.35 -14.34 9.7 -14 8 C-13.01 7.67 -12.02 7.34 -11 7 C-10.566875 6.566875 -10.13375 6.13375 -9.6875 5.6875 C-7.06681937 3.06681937 -3.8302817 0 0 0 Z " fill="#E4E9E7" transform="translate(778,432)"/>
<path d="M0 0 C2.78490859 3.91950098 1.81114407 7.78612016 1.125 12.25 C1.02058594 12.99507813 0.91617187 13.74015625 0.80859375 14.5078125 C0.55018787 16.34014511 0.27657918 18.17032234 0 20 C-2 18 -2 18 -2.25 14.5 C-2.14080831 9.54997653 -1.10415033 4.81094072 0 0 Z " fill="#282C2E" transform="translate(487,352)"/>
<path d="M0 0 C0.33 1.32 0.66 2.64 1 4 C-8.71428571 12 -8.71428571 12 -12 12 C-12 11.34 -12 10.68 -12 10 C-10.13671875 8.37890625 -10.13671875 8.37890625 -7.6875 6.5625 C-4.93295898 4.50879229 -2.36222597 2.49983136 0 0 Z " fill="#DFE5E1" transform="translate(563,393)"/>
<path d="M0 0 C-0.29539188 3.54470259 -0.77626519 4.78215295 -3.375 7.3125 C-6 9 -6 9 -9 9 C-7.45665977 5.21180126 -4.44676575 0 0 0 Z " fill="#DFE6E5" transform="translate(565,737)"/>
<path d="M0 0 C0.66 0 1.32 0 2 0 C2.08114106 1.77007714 2.13925505 3.54122098 2.1875 5.3125 C2.22230469 6.29863281 2.25710937 7.28476562 2.29296875 8.30078125 C2 11 2 11 0.48828125 12.85546875 C-0.00285156 13.23316406 -0.49398437 13.61085938 -1 14 C-1.22142255 12.04310341 -1.4267568 10.08438048 -1.625 8.125 C-1.74101562 7.03445313 -1.85703125 5.94390625 -1.9765625 4.8203125 C-1.98429688 3.88960937 -1.99203125 2.95890625 -2 2 C-1.34 1.34 -0.68 0.68 0 0 Z " fill="#C9CCC7" transform="translate(225,535)"/>
<path d="M0 0 C0.99 0.33 1.98 0.66 3 1 C2.67 5.62 2.34 10.24 2 15 C1.34 15 0.68 15 0 15 C0 10.05 0 5.1 0 0 Z " fill="#E0E3E1" transform="translate(468,515)"/>
<path d="M0 0 C1.15242187 0.00902344 2.30484375 0.01804687 3.4921875 0.02734375 C4.36101563 0.03894531 5.22984375 0.05054688 6.125 0.0625 C6.125 0.3925 6.125 0.7225 6.125 1.0625 C5.12339844 1.19527344 4.12179687 1.32804687 3.08984375 1.46484375 C1.74739346 1.64321127 0.40494567 1.8215977 -0.9375 2 C-1.92266602 2.13051758 -1.92266602 2.13051758 -2.92773438 2.26367188 C-7.24731192 2.83819697 -11.56207577 3.43995827 -15.875 4.0625 C-12.02122212 -0.86177174 -5.75460426 -0.05872045 0 0 Z " fill="#EAF2F3" transform="translate(795.875,427.9375)"/>
<path d="M0 0 C0.33 0 0.66 0 1 0 C1 6.93 1 13.86 1 21 C0.34 21.33 -0.32 21.66 -1 22 C-0.67 17.71 -0.34 13.42 0 9 C-0.66 9 -1.32 9 -2 9 C-1.34 6.03 -0.68 3.06 0 0 Z " fill="#D7DDD6" transform="translate(434,370)"/>
<path d="M0 0 C0.2475 0.639375 0.495 1.27875 0.75 1.9375 C1.81562433 4.18741541 1.81562433 4.18741541 4.125 4.75 C4.74375 4.8325 5.3625 4.915 6 5 C1.25588824 6.58137059 -2.12298314 3.91444411 -6.4375 1.8125 C-6.953125 1.544375 -7.46875 1.27625 -8 1 C-5.29120665 -0.35439668 -2.99066732 -0.06501451 0 0 Z " fill="#8B8C7E" transform="translate(444,639)"/>
<path d="M0 0 C0.33 0 0.66 0 1 0 C0.46148032 5.27749285 -0.77343836 9.25645564 -3 14 C-3.33 14 -3.66 14 -4 14 C-3.46148032 8.72250715 -2.22656164 4.74354436 0 0 Z " fill="#D9DCDD" transform="translate(489,627)"/>
<path d="M0 0 C0.99 0.495 0.99 0.495 2 1 C1.979375 1.804375 1.95875 2.60875 1.9375 3.4375 C1.70366379 5.93354885 1.70366379 5.93354885 3 7 C4.51928038 7.07179964 6.04167482 7.08392007 7.5625 7.0625 C8.38878906 7.05347656 9.21507812 7.04445313 10.06640625 7.03515625 C11.02353516 7.01775391 11.02353516 7.01775391 12 7 C12 7.66 12 8.32 12 9 C8.04 9 4.08 9 0 9 C0 6.03 0 3.06 0 0 Z " fill="#DBE0DE" transform="translate(676,564)"/>
<path d="M0 0 C0.33 0.99 0.66 1.98 1 3 C-1.64 5.31 -4.28 7.62 -7 10 C-7.33 9.01 -7.66 8.02 -8 7 C-6.85546875 5.17578125 -6.85546875 5.17578125 -5.1875 3.3125 C-4.37345703 2.37857422 -4.37345703 2.37857422 -3.54296875 1.42578125 C-2 0 -2 0 0 0 Z " fill="#E0E2E7" transform="translate(286,500)"/>
<path d="M0 0 C0.33 0 0.66 0 1 0 C0.45018084 6.04801071 -0.90429574 11.30601106 -3 17 C-3.99 15.68 -4.98 14.36 -6 13 C-5.01 13 -4.02 13 -3 13 C-2.87625 11.96875 -2.7525 10.9375 -2.625 9.875 C-2.06110186 6.37883154 -1.21317941 3.31602373 0 0 Z " fill="#E4E9E5" transform="translate(499,479)"/>
<path d="M0 0 C10.55808656 -0.55353075 10.55808656 -0.55353075 15 3 C11.90914327 4.54542837 9.32167685 3.59315658 6 3 C5.34 2.67 4.68 2.34 4 2 C2.67139075 1.64830932 1.33841672 1.31229724 0 1 C0 0.67 0 0.34 0 0 Z " fill="#AFB0AC" transform="translate(356,608)"/>
<path d="M0 0 C0.33 0.66 0.66 1.32 1 2 C1.66 2 2.32 2 3 2 C3.53122363 3.76774419 4.04964073 5.53934083 4.5625 7.3125 C4.85253906 8.29863281 5.14257812 9.28476562 5.44140625 10.30078125 C6 13 6 13 5 16 C0.59225513 5.62642369 0.59225513 5.62642369 0 0 Z " fill="#E2E4E1" transform="translate(568,513)"/>
<path d="M0 0 C3.2327644 4.8491466 4.44159362 10.43426291 6 16 C5.34 16 4.68 16 4 16 C3.32320342 14.274773 2.65898 12.54461061 2 10.8125 C1.443125 9.36810547 1.443125 9.36810547 0.875 7.89453125 C0.02363228 5.07817642 -0.17072647 2.91835561 0 0 Z " fill="#E2E5E3" transform="translate(555,475)"/>
<path d="M0 0 C2.99220268 1.36370299 5.29026529 2.94908083 7.75 5.125 C8.67039062 5.93324219 8.67039062 5.93324219 9.609375 6.7578125 C10.06828125 7.16773438 10.5271875 7.57765625 11 8 C10.67 8.99 10.34 9.98 10 11 C9.44570313 10.43410156 8.89140625 9.86820312 8.3203125 9.28515625 C7.59585937 8.55167969 6.87140625 7.81820313 6.125 7.0625 C5.40570313 6.33160156 4.68640625 5.60070312 3.9453125 4.84765625 C2.12972808 2.94332001 2.12972808 2.94332001 0 2 C0 1.34 0 0.68 0 0 Z " fill="#DEE4E5" transform="translate(273,436)"/>
<path d="M0 0 C2 0 2 0 3.69140625 1.64453125 C4.30886719 2.35996094 4.92632812 3.07539062 5.5625 3.8125 C6.18253906 4.52019531 6.80257813 5.22789062 7.44140625 5.95703125 C9 8 9 8 10 11 C6.8510285 9.63088196 4.9521513 8.1247864 2.75 5.5 C2.22921875 4.8915625 1.7084375 4.283125 1.171875 3.65625 C0 2 0 2 0 0 Z " fill="#DADEDF" transform="translate(398,591)"/>
<path d="M0 0 C0.99 0 1.98 0 3 0 C2.58578031 4.83256305 0.53586014 6.82679218 -3 10 C-3 6 -3 6 -1.5 4.25 C-1.005 3.8375 -0.51 3.425 0 3 C-0.66 2.67 -1.32 2.34 -2 2 C-1.34 2 -0.68 2 0 2 C0 1.34 0 0.68 0 0 Z " fill="#E9EFED" transform="translate(264,482)"/>
<path d="M0 0 C0 0.33 0 0.66 0 1 C-1.60256108 1.50512244 -3.20711792 2.00391627 -4.8125 2.5 C-6.15248047 2.91765625 -6.15248047 2.91765625 -7.51953125 3.34375 C-10 4 -10 4 -13 4 C-13 3.34 -13 2.68 -13 2 C-8.22169095 -0.91360308 -5.44893869 -1.19876651 0 0 Z " fill="#DCE0E0" transform="translate(522,321)"/>
<path d="M0 0 C0 1.65 0 3.3 0 5 C-2.31 5.33 -4.62 5.66 -7 6 C-3.61538462 0 -3.61538462 0 0 0 Z " fill="#89897D" transform="translate(621,631)"/>
<path d="M0 0 C2.2751756 2.20642029 3.90218833 3.98101792 5 7 C4.625 9.25 4.625 9.25 4 11 C1 9 1 9 0.48828125 6.8359375 C0.43027344 6.02382813 0.37226563 5.21171875 0.3125 4.375 C0.24675781 3.55773437 0.18101562 2.74046875 0.11328125 1.8984375 C0.07589844 1.27195312 0.03851563 0.64546875 0 0 Z " fill="#E3E4E8" transform="translate(447,613)"/>
<path d="M0 0 C0.66 0.33 1.32 0.66 2 1 C-0.475 5.455 -0.475 5.455 -3 10 C-3.66 9.67 -4.32 9.34 -5 9 C-4.34 7.02 -3.68 5.04 -3 3 C-2.34 3 -1.68 3 -1 3 C-0.67 2.01 -0.34 1.02 0 0 Z " fill="#293340" transform="translate(286,493)"/>
<path d="M0 0 C0.66 0.33 1.32 0.66 2 1 C1.38348417 2.6490302 0.75652258 4.29415841 0.125 5.9375 C-0.22304688 6.85402344 -0.57109375 7.77054687 -0.9296875 8.71484375 C-2 11 -2 11 -4 12 C-3.45660208 7.43545749 -2.20536179 4.0271824 0 0 Z " fill="#DCE4EB" transform="translate(569,380)"/>
<path d="M0 0 C0.66 0.33 1.32 0.66 2 1 C0.515 2.485 0.515 2.485 -1 4 C-0.67 4.99 -0.34 5.98 0 7 C-1.98 7.99 -3.96 8.98 -6 10 C-4.6302836 6.00499382 -2.74277578 3.19990508 0 0 Z " fill="#CDD4D7" transform="translate(515,237)"/>
<path d="M0 0 C1.32 0 2.64 0 4 0 C3.50639991 4.27786748 2.95216435 7.09567131 1 11 C0.67 7.37 0.34 3.74 0 0 Z " fill="#2B2D2A" transform="translate(436,641)"/>
<path d="M0 0 C1.90318884 2.85478326 2.4619099 4.41941308 3.125 7.6875 C3.29257812 8.49574219 3.46015625 9.30398438 3.6328125 10.13671875 C3.75398437 10.75160156 3.87515625 11.36648438 4 12 C3.34 12 2.68 12 2 12 C1.4654744 10.75579353 0.94791389 9.50429064 0.4375 8.25 C0.14746094 7.55390625 -0.14257812 6.8578125 -0.44140625 6.140625 C-1.07831803 3.69987216 -0.80248831 2.3596345 0 0 Z " fill="#BABDBF" transform="translate(546,562)"/>
<path d="M0 0 C0.66 0 1.32 0 2 0 C1.5020163 3.73487777 1.12508244 5.81237635 -1 9 C-1.66 9 -2.32 9 -3 9 C-2.44271087 5.65626525 -1.64826111 2.96687001 0 0 Z " fill="#DCDFE1" transform="translate(415,563)"/>
<path d="M0 0 C0.57234375 0.37898438 1.1446875 0.75796875 1.734375 1.1484375 C0.3026134 1.84780952 -1.13629532 2.53256468 -2.578125 3.2109375 C-3.77888672 3.78521484 -3.77888672 3.78521484 -5.00390625 4.37109375 C-7.265625 5.1484375 -7.265625 5.1484375 -10.265625 4.1484375 C-9.0293082 3.25420836 -7.77590938 2.38355859 -6.515625 1.5234375 C-5.81953125 1.03617187 -5.1234375 0.54890625 -4.40625 0.046875 C-2.265625 -0.8515625 -2.265625 -0.8515625 0 0 Z " fill="#DAE2DD" transform="translate(234.265625,429.8515625)"/>
<path d="M0 0 C-0.57344937 2.86724686 -0.8614515 3.8614515 -3 6 C-4.32 6 -5.64 6 -7 6 C-5.52522876 2.59668175 -4.14385429 0 0 0 Z " fill="#DADFE0" transform="translate(404,363)"/>
<path d="M0 0 C1.57554035 2.88628401 2.46276373 5.53342384 3.125 8.75 C3.29257812 9.54921875 3.46015625 10.3484375 3.6328125 11.171875 C3.81457031 12.07679688 3.81457031 12.07679688 4 13 C3.01 12.67 2.02 12.34 1 12 C0.03929566 9.11788698 -0.10581883 7.30149956 -0.0625 4.3125 C-0.05347656 3.50425781 -0.04445313 2.69601562 -0.03515625 1.86328125 C-0.02355469 1.24839844 -0.01195312 0.63351562 0 0 Z " fill="#B8BBB9" transform="translate(438,572)"/>
<path d="M0 0 C1.95766281 -0.08082094 3.91626728 -0.13910778 5.875 -0.1875 C7.51082031 -0.23970703 7.51082031 -0.23970703 9.1796875 -0.29296875 C10.11039063 -0.19628906 11.04109375 -0.09960938 12 0 C12.66 0.99 13.32 1.98 14 3 C9.30976546 2.43393721 4.65499974 1.81462495 0 1 C0 0.67 0 0.34 0 0 Z " fill="#8B9599" transform="translate(802,565)"/>
<path d="M0 0 C1.15957207 3.47871621 0.77456651 4.34219645 -0.4375 7.6875 C-0.72496094 8.49574219 -1.01242187 9.30398438 -1.30859375 10.13671875 C-1.53675781 10.75160156 -1.76492188 11.36648438 -2 12 C-2.99 11.67 -3.98 11.34 -5 11 C-4.34 11 -3.68 11 -3 11 C-3.2475 10.484375 -3.495 9.96875 -3.75 9.4375 C-4.15027964 5.53477349 -2.06779228 3.25833935 0 0 Z " fill="#E1E6E3" transform="translate(482,530)"/>
<path d="M0 0 C0.33 0.99 0.66 1.98 1 3 C4.63 3 8.26 3 12 3 C12 3.33 12 3.66 12 4 C4.08 4.495 4.08 4.495 -4 5 C-2.68 3.35 -1.36 1.7 0 0 Z " fill="#252828" transform="translate(288,520)"/>
<path d="M0 0 C0 3.3 0 6.6 0 10 C-3 7 -3 7 -3.1875 3.8125 C-3.125625 2.884375 -3.06375 1.95625 -3 1 C-1 0 -1 0 0 0 Z " fill="#C4C7C3" transform="translate(275,353)"/>
<path d="M0 0 C1.12894876 0.93274109 2.25300876 1.87140122 3.375 2.8125 C4.00148438 3.33457031 4.62796875 3.85664063 5.2734375 4.39453125 C7 6 7 6 9 9 C3.32467532 7.51948052 3.32467532 7.51948052 1.75 5 C1.5025 4.34 1.255 3.68 1 3 C0.34 2.34 -0.32 1.68 -1 1 C-0.67 0.67 -0.34 0.34 0 0 Z " fill="#E0E5E4" transform="translate(762,504)"/>
<path d="M0 0 C0.66 0.99 1.32 1.98 2 3 C0.19587357 6.26460973 -0.83394693 7.88929795 -4 10 C-3.29445932 6.33118845 -1.72264494 3.29549466 0 0 Z " fill="#252B29" transform="translate(379,416)"/>
<path d="M0 0 C1.48117801 0.28127421 2.95993249 0.57533732 4.4375 0.875 C5.67306641 1.11863281 5.67306641 1.11863281 6.93359375 1.3671875 C7.61550781 1.57601562 8.29742187 1.78484375 9 2 C9.33 2.66 9.66 3.32 10 4 C6.05272412 4.17942163 3.4019487 4.09350689 0 2 C0 1.34 0 0.68 0 0 Z " fill="#E0E7E6" transform="translate(229,532)"/>
<path d="M0 0 C0.66 0 1.32 0 2 0 C2 1.98 2 3.96 2 6 C0.02 6.99 0.02 6.99 -2 8 C-2.33 7.34 -2.66 6.68 -3 6 C-2.06553465 3.96855359 -1.06775224 1.96466413 0 0 Z " fill="#E1E3E4" transform="translate(414,344)"/>
<path d="M0 0 C3 1 3 1 4.0625 2.8125 C4.371875 3.534375 4.68125 4.25625 5 5 C5.37125 5.7425 5.7425 6.485 6.125 7.25 C6.41375 7.8275 6.7025 8.405 7 9 C3.65001479 7.88333826 3.20659778 7.25305075 1.3125 4.4375 C0.87550781 3.79683594 0.43851563 3.15617188 -0.01171875 2.49609375 C-0.50091797 1.75552734 -0.50091797 1.75552734 -1 1 C-0.67 0.67 -0.34 0.34 0 0 Z " fill="#DFE2E1" transform="translate(560,220)"/>
<path d="M0 0 C1 3 1 3 0.22265625 5.04296875 C-0.16019531 5.75066406 -0.54304688 6.45835937 -0.9375 7.1875 C-1.31777344 7.90292969 -1.69804687 8.61835937 -2.08984375 9.35546875 C-2.54037109 10.16951172 -2.54037109 10.16951172 -3 11 C-3.66 10.67 -4.32 10.34 -5 10 C-3.66511872 6.40608886 -2.03977277 3.24509304 0 0 Z " fill="#0A1112" transform="translate(476,661)"/>
<path d="M0 0 C0.66 0.66 1.32 1.32 2 2 C1.68134222 5.29279709 0.45484649 6.86535088 -2 9 C-1.125 1.125 -1.125 1.125 0 0 Z " fill="#DFE5E7" transform="translate(594,656)"/>
<path d="M0 0 C0.66 0.33 1.32 0.66 2 1 C-0.75 7.75 -0.75 7.75 -3 10 C-2.49287967 6.28111761 -1.88391785 3.26545761 0 0 Z " fill="#E0E5E8" transform="translate(414,651)"/>
<path d="M0 0 C0.66 0 1.32 0 2 0 C2.33 2.97 2.66 5.94 3 9 C2.01 9.495 2.01 9.495 1 10 C0.67 6.7 0.34 3.4 0 0 Z " fill="#242B29" transform="translate(413,618)"/>
<path d="M0 0 C0.66 0 1.32 0 2 0 C2.39063507 1.43333021 2.76198474 2.87192679 3.125 4.3125 C3.33382813 5.11300781 3.54265625 5.91351562 3.7578125 6.73828125 C4 9 4 9 2 12 C1.34 8.04 0.68 4.08 0 0 Z " fill="#1D2126" transform="translate(444,592)"/>
<path d="M0 0 C0.66 0 1.32 0 2 0 C1.125 6.75 1.125 6.75 0 9 C-0.99 8.67 -1.98 8.34 -3 8 C-2.34 7.67 -1.68 7.34 -1 7 C-0.59270772 4.67843403 -0.25561323 2.3431213 0 0 Z " fill="#E0E5E0" transform="translate(488,509)"/>
<path d="M0 0 C3.33557632 2.9905167 5.15083921 5.93184627 7 10 C3.17398693 8.54875366 1.77670876 6.64225296 0 3 C0 2.01 0 1.02 0 0 Z " fill="#DEE2E5" transform="translate(743,505)"/>
<path d="M0 0 C2.31 0.33 4.62 0.66 7 1 C7.33 1.99 7.66 2.98 8 4 C5.125 3.6875 5.125 3.6875 2 3 C1.34 2.01 0.68 1.02 0 0 Z " fill="#DBE2E3" transform="translate(374,492)"/>
<path d="M0 0 C0.33 0 0.66 0 1 0 C0.74438677 2.3431213 0.40729228 4.67843403 0 7 C-0.99 7.495 -0.99 7.495 -2 8 C-2.66 6.35 -3.32 4.7 -4 3 C-3.01 2.67 -2.02 2.34 -1 2 C-0.67 1.34 -0.34 0.68 0 0 Z " fill="#DEE2E0" transform="translate(512,445)"/>
<path d="M0 0 C0.99 0.33 1.98 0.66 3 1 C-0.75 6.875 -0.75 6.875 -3 8 C-2.45276317 4.62537285 -1.9451 2.91765 0 0 Z " fill="#2C3338" transform="translate(403,440)"/>
<path d="M0 0 C0.33 0.99 0.66 1.98 1 3 C-0.65 4.65 -2.3 6.3 -4 8 C-3.67 5.69 -3.34 3.38 -3 1 C-2.01 0.67 -1.02 0.34 0 0 Z " fill="#DDE3E5" transform="translate(607,620)"/>
<path d="M0 0 C2 2 2 2 2 5 C2.99 5.33 3.98 5.66 5 6 C4.34 7.32 3.68 8.64 3 10 C0.96564469 6.27034861 0 4.33094958 0 0 Z " fill="#0E1019" transform="translate(451,616)"/>
<path d="M0 0 C0.33 0.99 0.66 1.98 1 3 C-1.35438733 4.42944945 -2.48032433 5.08661261 -5.25 4.625 C-5.8275 4.41875 -6.405 4.2125 -7 4 C-6.34 4 -5.68 4 -5 4 C-5 3.34 -5 2.68 -5 2 C-3.35 1.34 -1.7 0.68 0 0 Z " fill="#313A3A" transform="translate(819,533)"/>
<path d="M0 0 C0.33 0.66 0.66 1.32 1 2 C-0.4375 4.625 -0.4375 4.625 -2 7 C-2.66 6.67 -3.32 6.34 -4 6 C-4 4.68 -4 3.36 -4 2 C-2.68 1.34 -1.36 0.68 0 0 Z " fill="#E2E8E6" transform="translate(760,447)"/>
<path d="M0 0 C0.598125 0.226875 1.19625 0.45375 1.8125 0.6875 C-0.1675 1.6775 -0.1675 1.6775 -2.1875 2.6875 C-2.1875 3.3475 -2.1875 4.0075 -2.1875 4.6875 C-4.6875 6.3125 -4.6875 6.3125 -7.1875 7.6875 C-4.27205882 -0.61029412 -4.27205882 -0.61029412 0 0 Z " fill="#E3E8ED" transform="translate(750.1875,439.3125)"/>
<path d="M0 0 C0.66 0 1.32 0 2 0 C2 2.64 2 5.28 2 8 C1.01 7.67 0.02 7.34 -1 7 C-0.67 4.69 -0.34 2.38 0 0 Z " fill="#989994" transform="translate(273,380)"/>
<path d="M0 0 C0.99 0.33 1.98 0.66 3 1 C3 2.32 3 3.64 3 5 C2.34 5 1.68 5 1 5 C1 6.98 1 8.96 1 11 C0.67 11 0.34 11 0 11 C0 7.37 0 3.74 0 0 Z " fill="#C5C5BE" transform="translate(1,807)"/>
<path d="M0 0 C0.99 0.33 1.98 0.66 3 1 C2.0479279 2.00596297 1.08812654 3.00461563 0.125 4 C-0.40867187 4.556875 -0.94234375 5.11375 -1.4921875 5.6875 C-3 7 -3 7 -5 7 C-3.88820837 3.66462511 -2.52588702 2.36292656 0 0 Z " fill="#ECEEEB" transform="translate(293,512)"/>
<path d="M0 0 C1.32 0.33 2.64 0.66 4 1 C0.25 4 0.25 4 -2 4 C-2 4.66 -2 5.32 -2 6 C-2.66 5.67 -3.32 5.34 -4 5 C-2.68 3.35 -1.36 1.7 0 0 Z " fill="#CACFD1" transform="translate(783,455)"/>
<path d="M0 0 C3.36179774 1.44077046 5.59156268 3.24750021 8 6 C8 6.66 8 7.32 8 8 C4.63820226 6.55922954 2.40843732 4.75249979 0 2 C0 1.34 0 0.68 0 0 Z " fill="#E1E7E8" transform="translate(828,439)"/>
<path d="M0 0 C0.33 0 0.66 0 1 0 C1.41176754 3.60296594 1.1535853 4.78402067 -1 7.8125 C-1.66 8.534375 -2.32 9.25625 -3 10 C-3.66 9.67 -4.32 9.34 -5 9 C-3.35 6.03 -1.7 3.06 0 0 Z " fill="#CCD0D4" transform="translate(414,426)"/>
<path d="M0 0 C0.66 0 1.32 0 2 0 C0.68775452 3.93673644 -0.91910327 6.22719294 -4 9 C-3.35494404 5.51669784 -2.01782732 2.90567134 0 0 Z " fill="#E0E4E2" transform="translate(496,333)"/>
<path d="M0 0 C0.66 0.33 1.32 0.66 2 1 C0.54744301 4.82946843 -1.42895561 6.12050295 -5 8 C-4.45773019 4.20411134 -2.79872437 2.52788007 0 0 Z " fill="#DCE3E2" transform="translate(559,285)"/>
<path d="M0 0 C1 3 1 3 0.1875 5.625 C-1 8 -1 8 -3 9 C-3.26218749 5.85375007 -3.24754367 4.38162983 -1.5 1.6875 C-1.005 1.130625 -0.51 0.57375 0 0 Z " fill="#DBE0E7" transform="translate(565,278)"/>
<path d="M0 0 C0.66 0 1.32 0 2 0 C3.32 2.31 4.64 4.62 6 7 C3.53199953 5.84826645 1.95216435 4.95216435 0 3 C0 2.01 0 1.02 0 0 Z " fill="#D1D4D4" transform="translate(512,721)"/>
<path d="M0 0 C0.99 0 1.98 0 3 0 C1.63016497 3.16115776 1.0109362 3.9927092 -2 6 C-1.125 1.125 -1.125 1.125 0 0 Z " fill="#E5EAEF" transform="translate(408,574)"/>
<path d="M0 0 C3.71599191 -0.20086443 4.77208445 -0.1519437 8 2 C7.67 2.66 7.34 3.32 7 4 C4.97954558 3.39816251 2.97888961 2.72693904 1 2 C0.67 1.34 0.34 0.68 0 0 Z " fill="#6F7F82" transform="translate(814,565)"/>
<path d="M0 0 C0.66 0 1.32 0 2 0 C2 0.66 2 1.32 2 2 C2.99 1.67 3.98 1.34 5 1 C5.33 2.32 5.66 3.64 6 5 C4.125 4.75 4.125 4.75 2 4 C0.75 1.9375 0.75 1.9375 0 0 Z " fill="#DEE2E4" transform="translate(754,519)"/>
<path d="M0 0 C0.66 0 1.32 0 2 0 C2.66 2.64 3.32 5.28 4 8 C3.34 8 2.68 8 2 8 C0.23537317 4.91190305 0 3.76687864 0 0 Z " fill="#2E3632" transform="translate(549,464)"/>
<path d="M0 0 C0.33 0 0.66 0 1 0 C1.32613618 4.67461851 0.70582788 7.16674383 -2 11 C-2.625 9.125 -2.625 9.125 -3 7 C-2.34 6.34 -1.68 5.68 -1 5 C-0.35232207 2.42938689 -0.35232207 2.42938689 0 0 Z " fill="#DDE1DE" transform="translate(379,410)"/>
<path d="M0 0 C4.455 1.98 4.455 1.98 9 4 C9 4.33 9 4.66 9 5 C5.625 4.75 5.625 4.75 2 4 C1.34 2.68 0.68 1.36 0 0 Z " fill="#DBDFDE" transform="translate(544,321)"/>
<path d="M0 0 C1.485 0.99 1.485 0.99 3 2 C2.67 3.98 2.34 5.96 2 8 C1.34 7.67 0.68 7.34 0 7 C0 4.69 0 2.38 0 0 Z " fill="#DBDEDB" transform="translate(468,305)"/>
<path d="M0 0 C2.9375 1.1875 2.9375 1.1875 3.9375 3.1875 C-2.21484375 2.6015625 -2.21484375 2.6015625 -4.0625 2.1875 C-4.3925 1.5275 -4.7225 0.8675 -5.0625 0.1875 C-3.0625 -0.8125 -3.0625 -0.8125 0 0 Z " fill="#DADFE0" transform="translate(547.0625,210.8125)"/>
</svg>
