<?xml version="1.0" encoding="UTF-8"?>
<svg version="1.1" viewBox="0 0 1000 997" width="1280" height="1280" xmlns="http://www.w3.org/2000/svg">
<path transform="translate(0)" d="m0 0h1e3v997h-1e3z" fill="#FCFCFC"/>
<path transform="translate(606,348)" d="m0 0 5 3 3 8 3 22 4 11 4 3 11 2 12-1 5-1 1-8v-22l-1-13 5-2 9 29 5 12 9 12 6 7 8 7v9l-1 10-3 60-2 33 14 44 9 42 12 58-1 4-66 8h-8l-7-24-5-18v-4l-6-2-2 9-12 37-1 2h-35l-24-5-17-5-1-4 6-35 5-16 19-56 3-14 9-14v-58l-3-40v-10l12-17 11-21 3-12 1-8z" fill="#272828"/>
<path transform="translate(334,332)" d="m0 0 5 2 3 3-1 11v24l4 17 7 14 6 8 1 4v18l-6 36-3 33v8l8 30 3 17v6l-8 11v1l7-1h3v16l-5 8v2l5-1v12l-4 30-5 24-1 2-20 2-27 2h-45l-21-3-5-2v-21l2-44h2l6 11h2l1-4h2l-2-10-3-9 1-4 1-1v-13l-2-10-2-3v-8l5-24 5-19 1-16v-13l-2-23-4-21v-21l2-5 7-10 4-8 2-14 2-38 5-3h2l3 25 5 10 4 2 11 7 8 3h8l9-6 8-14 5-22z" fill="#272929"/>
<path transform="translate(606,348)" d="m0 0 5 3 3 8 3 22 4 11 4 3 11 2 12-1 5-1 1-8v-22l-1-13 5-2 9 29 5 12 9 12 6 7 8 7v9l-1 10-3 60-2 31-3 3-43 7-27 1-34-2-1-58-3-40v-10l12-17 11-21 3-12 1-8z" fill="#1A74BF"/>
<path transform="translate(334,332)" d="m0 0 5 2 3 3-1 11v24l4 17 7 14 6 8 1 4v18l-6 36-4 40-9 3-25 5-7 1h-28l-19-4-8-3 1-20v-13l-2-23-4-21v-21l2-5 7-10 4-8 2-14 2-38 5-3h2l3 25 5 10 4 2 11 7 8 3h8l9-6 8-14 5-22z" fill="#1A74BF"/>
<path transform="translate(593,129)" d="m0 0h1v7l-2 10 8-14 4-3v7l-4 11 1 1 8-8 5-2-1 6-9 13-1 2-1 9 10-4 5 2 1 3-9 4-10 10-9 4h-3l-2 11-3 15-3 35-3 18 1 8 5 17 3 15 2 16 12 15 7 11v22l-3 17-8 17-10 16-6 8-3-1-11-28-8-28-12-28-2-10-2-69 2-16 9-20 7-15 9-20 2-4v-18l4-16 3-18 1-2h2l1 12h2l8-16z" fill="#FCCAA4"/>
<path transform="translate(343,338)" d="m0 0 9 3 17 6 10 7 6 7 3 7 2 13 1 15 3 8 3 17v57l-2 20-5 23-7 26-4 25-5 13-8 12-6 4-3-1 2-5 3-5v-16l-4 2h-5l-1-2 6-8 2-3-1-12-5-23-5-18 1-20 3-28 5-29v-18l-3-7-7-10-5-12-3-14v-24l2-9z" fill="#FCCAA4"/>
<path transform="translate(672,133)" d="m0 0 5 5 7 12-3-12v-4l4 1 9 18 1-11 2-3 2 3 3 19 4 15v9l7 25 7 26 2 12v32l-1 16v25l-2 17-6 18-6 11-4 29-4 16-2 4-5-1-7-6-9-11-7-11-10-30-1-4v-7l7-9 11-11 2-1 7-31 6-17 3-6v-9l-1-10-1-60-9-2-8-4-10-10-7-3v-3l2-1h7l7 3-2-10-10-16v-3l5 1 8 8v-2l-4-12z" fill="#FCCAA4"/>
<path transform="translate(262,340)" d="m0 0h2v36l-2 14-7 13-5 6-1 4v21l4 21 2 23v13l-1 16-7 27-3 16v8l3 6 1 7v13l-2 2 2 9 2 6v7h-2l-1 5-3-1-5-9v-2h-2l-7-16-6-28-11-46-2-10v-17l4-26v-50l3-10 1-2 1-16 3-12 5-8 8-7 10-5 10-4z" fill="#FCCAA4"/>
<path transform="translate(302,240)" d="m0 0 9 1 10 4 9 8 2 4v19l-3 9h2v8l-4 9-3 8v9l1 8 9 4v9l-5 22-6 11-4 5-8 5h-8l-12-5-11-8-5-7-2-10-1-9v-10l12-7v-15l-3-10-4-10-1-7 1-5-1-3v-9l1-10 6-11 4-3z" fill="#FCCAA5"/>
<path transform="translate(625,260)" d="m0 0h9l11 4 11 10 1 4v18l-2 8h2v8l-4 9h-2l1 27 2 6 1 11v22l-2 8-5 2-12 1-11-2-5-4-4-11-4-26-1-2v-20l-3-10-5-10-1-8 1-3-2-6 1-18 6-11 4-3z" fill="#FCCAA5"/>
<path transform="translate(715,677)" d="m0 0h5l3 9 3 8 9 12 10 17 5 13 4 30 1 13v10l-14 2h-9l-12-19-10-16-6-12-10-32-11-18-5-10v-2l21-3z" fill="#FCCAA4"/>
<path transform="translate(539,674)" d="m0 0 26 7 15 3-2 6-9 16-6 12-7 24-8 16-21 33h-9l-14-2 1-21 3-25 3-13 8-16 16-24z" fill="#FCCAA4"/>
<path transform="translate(255,670)" d="m0 0 42 1-1 13-2 14v16l3 19v35l-1 22-1 1-23 1-14-56-2-13-1-17z" fill="#FCCAA4"/>
<path transform="translate(333,668)" d="m0 0h8l-1 12-1 35-2 21-6 29-5 25-1 2h-15l-4-1-6-39-1-9v-19l2-29v-10l-1-14 20-2z" fill="#FCCAA4"/>
<path transform="translate(359,421)" d="m0 0h1l2 13 6 18 5 10v10l-3 28v28l1 16-6 9-2 7-2 1-6-29-6-22 1-20 3-28 5-29z" fill="#FDFDFD"/>
<path transform="translate(756,811)" d="m0 0 6 1 3 3 3 10 14 19 6 9 1 5v10l-3 2h-17l-9-2-7-6-4-8-11-7-2-2v-7l5-15 2-3 8-1 3-7z" fill="#1A74BF"/>
<path transform="translate(501,811)" d="m0 0 5 2 2 6 8 1 4 8 3 10v7l-9 7-5 3-4 8-6 5-9 2h-17l-3-3v-9l2-7 14-19 5-7 3-10 3-3z" fill="#1A74BF"/>
<path transform="translate(278,813)" d="m0 0h10l9 6 1 15v31l-3 3-4 1h-11l-16-3-3-2v-13l5-13 5-16 4-8z" fill="#1A74BF"/>
<path transform="translate(319,817)" d="m0 0h4l5 20 8 16 1 10-1 6-10 2h-20l-4-2-1-4-1-23 2-16 6-2 3-5z" fill="#1A74BF"/>
<path transform="translate(248,434)" d="m0 0 2 4 4 26 1 14v13l-1 16-7 27-4 21-4-2-5-6 1-22 5-63 3-12z" fill="#FDFDFD"/>
<path transform="translate(625,260)" d="m0 0h9l11 4 11 10 1 4v18l-3 10h-2l-3-10-1-10-4-4-13-1-21 3-1 3v11l-1 10h-2l-4-8-1-4 1-18 6-11 4-3z" fill="#262E33"/>
<path transform="translate(302,240)" d="m0 0 9 1 10 4 9 8 2 4v19l-3 10-3 1-2-7-1-13-3-4-7-1h-11l-15 1-2 1-1 3-2 20-3-3-3-7v-9l1-10 6-11 4-3z" fill="#262D32"/>
</svg>
