<?xml version="1.0" encoding="UTF-8"?>
<svg version="1.1" viewBox="0 0 1000 997" width="1280" height="1280" xmlns="http://www.w3.org/2000/svg">
<path transform="translate(0)" d="m0 0h1e3v997h-1e3z" fill="#FCFDFD"/>
<path transform="translate(737,166)" d="m0 0h8l19 6 9 7 8 9 16 24 1 5v11l-3 7-5 5-6 3h-6l-1 5-8 14-5 3-4 4-8 15h-5-4l-12 5-9 6-7-1-5-4-5 12-2 3-9 54-1 36-4 20-10 33-5 16-6 18v9l2 5h2l6 7 13 5 6 5 1 4-1 2-6 1v2l-9 1-9-6-5-3v8l-3 1 1 5-1 1-12 2-19-1h-37l-12-2-5-8-8-32-9-40-2-16v-19l3-34 1-23-50 19-13 8-16 8-14 6-22 8-17 8-14 9-6 4-5-1-20-14-5-3-29 13-11 5h-3l-14-25-8-17v-10l5-25 4-11 5-5 25-13 19-10 47-26 18-11 12-3 17-2 13-3h14l13 2 14-10 7-7 9-11 11-12 8-8 6-4 7-8 10-7 12-5 18-5 11 1 16 5 33 11 14 3 5-1 12-21 8-7 15-10z" fill="#FBCAA1"/>
<path transform="translate(563,216)" d="m0 0 1 2-4 13-1 8v28l3 12 3 53v24l-50 19-13 8-16 8-14 6-22 8-17 8-14 9-6 4-5-1-20-14-5-3-29 13-11 5h-3l-14-25-8-17v-10l5-25 4-11 5-5 25-13 19-10 47-26 18-11 12-3 17-2 13-3h14l13 2 14-10 7-7 9-11 11-12 8-8z" fill="#262728"/>
<path transform="translate(465,656)" d="m0 0h15l16 4 17 2 15 6 11 3 7 8 4 2-6 7-11 9-9 7-5 6-3 6v15l5 16 8 16 9 14 5 7-3 1-28-8-6-1-26 5-16 2h-34l-20-6-15-4-14-3-11-1h-25l-20 2h-7l-5-23-6-23 1-5 10-16 11-15 9-10 8-4 22-3 44-5 29-6z" fill="#262728"/>
<path transform="translate(775,627)" d="m0 0 10 1 21 6 9 6 7 7 15 22 4 6 1 7v8l-3 8-7 6-5 2h-5l-1 5-9 15-7 2-2 5-7 13-4 1-4-1-5 3-8 3-7 5h-9l-6-7-9-15v-2h-27l-9 11-10 13-8 8-14 8-19 7-19 5-16 7-7 2h-23l-13-2-7-19-2-11-2-21v-8l15-4 16-5 5 2 2 1h9l17-4 18-7 12-7 11-10 6-10 3-10 1-7v-11l-3-18-1-5h7l6 2h11l7 2 21 5 9 2 9-10 14-8 7-3z" fill="#FBCAA1"/>
<path transform="translate(639,628)" d="m0 0 17 1 15 4 8 5 3 9 2 14v11l-3 14-5 10-9 10-13 9-11 5-18 6-10 2h-9l-5-3-10 3-21 5h-2l4 36 7 21v2l13 1h23l12-4 14-6 19-5h6l-2 13-2 10 9 7 17 7 5 2 2 6-4 1v2h-8v2h-6l-13-9-2-1-3 9v3l-10 3h-12l-3 1h-15l-9-1-33-1-6-5-13-20-12-17-2-3v-3h-2l-12-17-8-15-6-17-1-4v-15l5-9 7-7 16-12 8-7 7-8 8-8 10-7 21-10 10-7 7-6 8-4 8-2z" fill="#FBCAA2"/>
<path transform="translate(737,166)" d="m0 0h8l19 6 9 7 8 9 16 24 1 5v11l-3 7-5 5-6 3h-6l-1 5-8 14-5 3-4 4-8 15h-5-4l-12 5-9 6-7-1-5-4-1-3-8-14h-3v-2l-7-1-2 6-6 11-11 12-8 5-6 2h-5l-3-4-1-5v-9l5-37v-11l-4-16-9-23v-4l10 3 21 7 14 3 5-1 12-21 8-7 15-10z" fill="#FBCAA1"/>
<path transform="translate(563,216)" d="m0 0 1 2-4 13-1 8v28l3 12 3 53v24l-50 19-4-2-10-8-8-9v-12l-5-12-2-9v-11l2-23 3-9 11-8 21-14 8-8 9-11 11-12 8-8z" fill="#1973BE"/>
<path transform="translate(679,638)" d="m0 0h7l5 1 3 11 2 18v10l-4 16-12 25-6 14-1 5v14l3 5 4 2h15l-5 6-14 8-19 7-19 5-16 7-7 2h-23l-13-2-7-19-2-11-2-21v-8l15-4 16-5 5 2 2 1h9l17-4 18-7 12-7 11-10 6-10 3-10 1-7v-11l-3-18z" fill="#1973BE"/>
<path transform="translate(656,327)" d="m0 0 3 1-1 1v33l-2 15-5 21-2 12-2 28-1 25-3 27-2 6-10 8-3 2-7-1-7-2-14-1-4-3v-24l2-27 3-18 2-11 2-39 8-21 3-11 2-17 28-1z" fill="#FDFEFE"/>
<path transform="translate(197,369)" d="m0 0h8l18 6 3 3-16 7-10 2-1 5v10l10 9 3 2 6-1 7-2h5l4 3 3 1h11l-1 7-7 9-6 7-5 8-2 7 8 10 5 7v6l-3 3-9 3-10 1h-27l-11-3-6-5-5-10-2-8v-14l3-17-3-11-1-12 2-14 4-9 4-3h11 3l5-6z" fill="#1973BE"/>
<path transform="translate(193,674)" d="m0 0h9l12 5 8 4-2 2-22 2-6 7-1 6 3 6 9 8h14l18 5-3 9-6 10-3 9v7l8 13 1 3v7l-5 4-12 4-12 2h-14l-12-3-7-5-5-10-2-9v-21l1-13-5-17-1-12 2-11 4-6 7-3h15z" fill="#1973BE"/>
<path transform="translate(775,627)" d="m0 0 10 1 21 6 9 6 7 7 15 22 4 6 1 7v8l-3 8-7 6-5 2-7-1-13-9-7-3h-11l-16 2-8 4h-8l5-9 1-9-1-5-7-1-8 3-4 1-7-5-7-9-1-7-16-12-4-4 20 4 9 3 4-1 8-9 14-8 7-3z" fill="#262729"/>
<path transform="translate(286,348)" d="m0 0h14l20 3 3 2-4 21v10l8 17v2l-15 2-50 3-12 6-5 1h-8l-6-3-1-1-9 1-5 2-5-1-9-7-4-4v-10l2-5 12-4 21-9 4-4 23-13 16-7z" fill="#FBC9A1"/>
<path transform="translate(261,678)" d="m0 0h19l14 3 10-1h18l11 3-2 5-8 10-13 20-2 3 1 8 2 10-9-1-25-6-35-10-25-7h-14l-10-9-3-6 2-7 6-7 49-5z" fill="#FBCAA1"/>
<path transform="translate(737,166)" d="m0 0h8l19 6 9 7 8 9 16 24 1 5v11l-3 7-5 5-6 3h-6l-15-10-8-3-16 1-12 2-5 3h-8l2-5 3-7v-7l-1-4h-10l-4 2-8-1-6-2 2-5 3-5 8-14 8-7 15-10z" fill="#262729"/>
<path transform="translate(619,191)" d="m0 0 8 1 12 4 5 10 8 21 3 13v11l-5 37v9l2 7 1 1 8-1 10-5 8-8 7-11 5-10h8l-3 7-10 21-9 13-11 12-12 6-8 2h-28v-28l12-11 7-10 6-13 3-12v-22l-4-11-5-12-4-9-4-5-10-6z" fill="#1973BE"/>
<path transform="translate(537,678)" d="m0 0 12 2v3l-8 8-16 12-6 7-3 6v15l5 16 8 16 9 14 5 7-3 1-28-8-3-2-7-21-2-13v-9l2-12 8-16 12-14 10-9z" fill="#1973BD"/>
<path transform="translate(225,410)" d="m0 0h5l4 3 3 1h11l-1 7-7 9-6 7-5 8-2 7 8 10 5 7v6l-3 3-9 3h-6l2-1 2-12v-4h-2v-2l-6-2-6-5v-9l2-7 3-7h2l2-5 1-3v-12z" fill="#17679F"/>
<path transform="translate(216,715)" d="m0 0 9 1 10 3-3 9-6 10-3 9v7l8 13 1 3v7l-5 4-5 2h-3l-1-15-2-3-7-3-2-3v-15l5-10 3-4v-14z" fill="#17679F"/>
<path transform="translate(633,786)" d="m0 0 3 1h-2v7l-3 5-5 4-2 5-8-2h-31l-5-11v-3l12 1h23l12-4z" fill="#FDFEFE"/>
<path transform="translate(699,272)" d="m0 0 3 1 8 14-2 7-7-2-9 12-9 11h-2v2l-10 8-10 5-4-1 4-4 8-6 8-9 10-16 9-19z" fill="#E2AB86"/>
<path transform="translate(599,724)" d="m0 0 4 2-3 3-21 13-1 2-1 13v17l1 12-2-1-5-16-3-28v-8l15-4z" fill="#1767A0"/>
<path transform="translate(197,369)" d="m0 0h8l18 6 3 3-16 7-6-1-13-5v-4l4-5z" fill="#1767A0"/>
<path transform="translate(620,708)" d="m0 0 5 2 8 5v2l-9 3-2 5-2 2-5 1h-9l-5-3 4-4 11-8z" fill="#E1A882"/>
<path transform="translate(286,348)" d="m0 0h14l15 2 2 2-33 1-13 4-16 8-20 9v-3l25-14 16-7z" fill="#E6AE88"/>
<path transform="translate(304,680)" d="m0 0h18l11 3-2 5-5 6-6-1-22-10v-2z" fill="#E2AA84"/>
<path transform="translate(193,674)" d="m0 0h9l12 5 8 4-2 2h-22l-9-5-2-1 1-3z" fill="#1768A0"/>
<path transform="translate(206,385)" d="m0 0h2v13l4 9 6 5-2 2-5-1-9-7-4-4v-10l2-5z" fill="#FDFEFE"/>
<path transform="translate(570,243)" d="m0 0h2l-3 9-7 24h-2l-2-9v-19l7-1z" fill="#E1AA84"/>
<path transform="translate(708,642)" d="m0 0 20 4 11 4-4 5-6 4-10-8-11-8z" fill="#1973BD"/>
<path transform="translate(198,686)" d="m0 0h8l-4 5-2 9 1 10 1 3-4-2-7-8-1-5 3-7z" fill="#FDFEFE"/>
<path transform="translate(751,675)" d="m0 0 3 1-5 6-1 3v15l1 6-10 7-4 2 2-4 5-7 1-20 3-6z" fill="#E1A882"/>
<path transform="translate(602,645)" d="m0 0h2l-1 5-4 11-3 17h-1l-1-6v-22z" fill="#E2A983"/>
<path transform="translate(702,728)" d="m0 0h29l10 3-1 2h-21l-17-4z" fill="#E2A983"/>
<path transform="translate(704,214)" d="m0 0h2l-2 7v20l-7 11-5 5-2-1 4-5 5-10 1-18 1-8z" fill="#E1A882"/>
<path transform="translate(572,300)" d="m0 0h1l3 16 5 12-1 2-7-6-3-6v-12z" fill="#E1A882"/>
<path transform="translate(624,818)" d="m0 0h8l9 2 16 9v1h-7l-10-6-16-4z" fill="#E1A882"/>
<path transform="translate(633,519)" d="m0 0 9 1 13 4 5 5-6-1-21-6-7-1v-1z" fill="#E1A882"/>
<path transform="translate(256,406)" d="m0 0 4 1v2l-10 5-6-2-3-2v-2z" fill="#E6AE88"/>
<path transform="translate(605,824)" d="m0 0h19l12 5 2 1v2l-7-1-11-4-15-2z" fill="#E1A882"/>
<path transform="translate(643,800)" d="m0 0h12l5 2 3 6 1 9-3-1-3-10-3-2-11-2z" fill="#E1A882"/>
<path transform="translate(236,408)" d="m0 0 5 1 7 4-3 2h-8l-6-3v-3z" fill="#FDFEFE"/>
<path transform="translate(686,270)" d="m0 0h5l-2 6-12-2-5-1 4-2z" fill="#E1AA86"/>
<path transform="translate(638,816)" d="m0 0h12l3 8-6-2-9-5z" fill="#FDFEFE"/>
<path transform="translate(684,815)" d="m0 0 7 1 3 3 1 4-6 1z" fill="#E5AE87"/>
<path transform="translate(653,512)" d="m0 0h4l2 9-5-2-8-3v-1l6-2z" fill="#E1A882"/>
<path transform="translate(634,509)" d="m0 0h9l3 6-6-1-6-3z" fill="#FDFEFE"/>
<path transform="translate(680,510)" d="m0 0 5 2 4 5 2 2v2l-4-2-2-4-4-2z" fill="#E1A882"/>
</svg>
