<?xml version="1.0" encoding="UTF-8"?>
<svg version="1.1" viewBox="0 0 1000 1000" width="1280" height="1280" xmlns="http://www.w3.org/2000/svg">
<path transform="translate(0)" d="m0 0h1e3v1e3h-1e3z" fill="#FCFCFC"/>
<path transform="translate(367,509)" d="m0 0h13l10 3 9 6 6 8 6 15v3h-6l9 9-1 4-9-8-4-3h-7l-1 2 4 2 10 7v3l-4-2-15-10h-1v5l7 9v2h2l3 5-5-2-1-3-4-2-5-4h-4l2 5 9 11 8 9-2 2-7 3-2 4 22 1 9 2v13l-1 2-1 14-2 2 15 8 2 3-1 3-18-6-5-1h-22l-16 5-12 5-7 4-9 3-7 9-6 13-2 10v20l3 16 5 13 7 11 8 8 14 7 12 3h15l12-3 14-7 10-9 4-8 2-7 1-21h28l15-1 9 8 11 7 8 3 6-10 6-3 13-2 5-5 8-16 3-7 7-6 3-5 1-5 6-6h2l7 9 4-2 6 9 13 25 4 12 6 31 3 6 4 3 4 1 15 1 3-9 16-36 4 5 5 13v9l-9 11-6 7-6 14-6 15-9 14-10 9-16 9-15 13-10 7-9 4-5 1h-25l-25-3-41-7-17-6-28-11-17-6-17-9-13-10-12-11-13-13-9-13-8-15-7-21-3-17v-24l3-17 2-7 1-15v-21l-6-8-5-15-2-13-1-18 2-15 4-10 6-8 10-7 15-6z" fill="#1972BE"/>
<path transform="translate(562,229)" d="m0 0 3 4 5 13h2l3-2 10 15 11 19 4 13 5 26 3 6 5 3 15 2 7-15 12-27 4 4 6 13 1 7-7 8-10 10-5 18-7 14-11 13-15 15-8 7-14 12-10 7-12 6-4 1h-9l-20-3-26-7-9-2-33 1-60 5-64 5h-4l2-4 8-11 3-7 1-6v-8l-4-16-5-9-7-8-11-7-12-5-12-3-13-1-16 2-9 5-16 16-5 7-2-1 6-11 8-11 9-8 14-8 20-8 19-6 18-4 10-1h10l16 2 17 4 24 3 53 2 33 4 8 1 22-18 16-33 14-23z" fill="#262828"/>
<path transform="translate(642,161)" d="m0 0h12l9 4h9l9 3 10 9 8 11 12 23 13 21 13 24 8 14 8 15 6 11 10 17 7 10 1 2 6 3 15 15v2l6 2 10 8 9 8 24 3 4 2 4 8 1 5 14-1 7 3 1 2v8l-5 10-8 6-16 4-9 1h-19l-10-2h-11l-11 3-13 1-18-2-10-3-1-1v-19l-16-1-6-2-1-2v-10l8-36 1-8-12-9-9-7-13-11-10-8-15-13-7-13-5-4-4-4-11 25-16 36-3 5-15-2-6-4-3-6-6-30-4-11-13-22-6-9-5 3-7-17 1-5 18-18 8-7 15-15 11-9 14-10z" fill="#FCC9A1"/>
<path transform="translate(645,582)" d="m0 0 8 1 6 3h16l9 4 14 16 6 9 4 10 3 10 14 25 8 13 6 11 14 27 14 24 8 12v2l7 1 7 7 12 9 7 3 10 9 5 3 20 6 8 4 3 5v6l21 1 3 4v10l-9 10-7 4-20 3-10 1h-10l-8-1h-13l-20 5h-15l-12-3-6-5-1-2v-16h-16l-4-2-1-5v-14l5-28v-8l-8-8-11-9-10-10-8-7-16-16-7-12-8-7-3-5-2 3-8 22-20 45h-15l-7-3-4-5-4-18-4-20-7-16-10-19-4-6-4 2-7-8-1-3 9-10 7-8 12-13 16-17 10-9 16-11z" fill="#FCC9A1"/>
<path transform="translate(405,543)" d="m0 0h7l11 5 11 6 11 8 3 2v2l4 2 5 4 19 11 23 12 18 11 15 11 13 12 7 8 4 7-1 4-4 4 1 5 2 6 2 1-1 6-8 9h-2l-3 9-7 14-4 5-7 2-11 2-5 5-3 7-13-5-14-11-2-2-15 1h-25l-3-1v21l-4 12-9 10-9 6-11 5-10 2h-15l-12-3-14-7-10-10-8-14-5-17-1-8v-20l3-13 7-13 7-8 10-3 14-7 15-5 4-1h22l15 4 8 3-2-5-16-7 3-3 1-14 1-5 1-10-9-1-23-1 2-5 4-3 5-2-9-10-9-11-1-4 5-1 9 7 4 4-1-4h-2l-8-11v-5l2-1 16 11 3 2v-3l-4-2-10-7 1-3h7l11 9 2 2v-5l-4-2-6-4z" fill="#FCCAA1"/>
<path transform="translate(185,296)" d="m0 0h5l3 3 22-2 3-1h8l4 3 6 21 15 5 12 2 1 3-12 7-7 7-10 16-2 4 1-1 12-13 9-9 9-5 17-2 17 2 15 5 11 6 10 9 6 10 3 8 2 10v8l-2 9-6 10-7 9-18 2-34 1-20 8-27 11-18 6-15 2-16 4h-8l-6-3-15-15-4-5-6-12-5-23-8-13-5-11-3-10-1-9 2-11 6-10 7-6 9-6 11-7 14-4 4-3h2v-2l6-5z" fill="#FCC9A1"/>
<path transform="translate(562,657)" d="m0 0h2l7 9 4-2 6 9 13 25 4 12 6 31 3 6 4 3 4 1 15 1 3-9 16-36 4 5 5 13v9l-9 11-6 7-6 14-6 15-9 14-10 9-16 9-15 13-10 7-9 4-5 1h-25l-25-3-14-3-2-24v-33l3-15 7-17 3-7 1-12 1-5 4-7 6-3 13-2 5-5 8-16 3-7 7-6 3-5 1-5z" fill="#262828"/>
<path transform="translate(336,307)" d="m0 0h10l16 2 17 4 24 3 53 2 33 4 8 2-5 27-3 14v19l4 21v3l-2 1-33 1-60 5-64 5h-4l2-4 8-11 3-7 1-6v-8l-4-16-5-9-7-8-11-7-12-5-12-3-13-1-16 2-9 5-16 16-5 7-2-1 6-11 8-11 9-8 14-8 20-8 19-6 18-4z" fill="#1972BD"/>
<path transform="translate(367,509)" d="m0 0h13l10 3 9 6 6 8 6 15v3h-6l9 9-1 4-9-8-4-3h-7l-1 2 4 2 10 7v3l-4-2-15-10h-1v5l7 9v2h2l3 5-5-2-1-3-4-2-5-4h-4l2 5 9 11 8 9-2 2-7 3-2 4 22 1 9 2v13l-1 2-1 14-4 2v2l-7 1h-23l-18 8-17 2-16 8-4 1 1-15v-21l-6-8-5-15-2-13-1-18 2-15 4-10 6-8 10-7 15-6z" fill="#EEB691"/>
<path transform="translate(778,326)" d="m0 0 5 2 15 15v2l6 2 10 8 9 8 24 3 4 2 4 8 1 5 14-1 7 3 1 2v8l-5 10-8 6-16 4-9 1h-19l-10-2h-11l-11 3-13 1-18-2-10-3-1-1v-19l-16-1-6-2-1-2v-10l8-36 2-7 8 6 8 8 7 8h7l5 5 6 8 4 1 9-3 6-4 2-4v-6l-7-8-11-16z" fill="#1972BE"/>
<path transform="translate(776,749)" d="m0 0 6 1 7 7 12 9 7 3 10 9 5 3 20 6 8 4 3 5v6l21 1 3 4v10l-9 10-7 4-20 3-10 1h-10l-8-1h-13l-20 5h-15l-12-3-6-5-1-2v-16h-16l-4-2-1-5v-14l6-33h4l20 20h8l6 5 3 7 2 1 10-1 9-4 2-5 1-8-13-12-8-12z" fill="#1972BE"/>
<path transform="translate(185,296)" d="m0 0h5l3 3 22-2 3-1h8l4 3 6 21 15 5 12 2 1 3-12 7-7 7-10 16-2 5 7 2 10 3 4 3h-22l-9 3-8 4-1 2-9 5-10 10-4 6-5-5-14-20-6-13-1-6v-4l1-7 3 4v2l3-2v-6l-2-4-4-2-6-5h-9l-4 2h-10l-6 4-2 2v6l5 11 3 20 1 14-4-4-8-15-4-13-1-9 2-11 6-10 7-6 9-6 11-7 14-4 4-3h2v-2l6-5z" fill="#EEB691"/>
<path transform="translate(367,509)" d="m0 0h13l10 3 9 6 6 8 3 8v2l-24 6-8 5-3 4-5 13-5 6-2 14-4-1-6-8-5-3h-6l-3 3-1 2 1 10 1 4-4 6-5 13-4-2-4-7-4-12-2-13-1-18 2-15 4-10 6-8 10-7 15-6z" fill="#262828"/>
<path transform="translate(0 1e3)" d="m0 0h1e3v4h-1e3z"/>
<path transform="translate(642,161)" d="m0 0h12l9 4v2l-8 4-14 11-9 8h-2v2l-9 7-1 2h-2v2l-8 7-4 4h-2v2h-2v2h-2v2l-5 4-16 16-1 2h-2l-1 3-5 3-7-17 1-5 18-18 8-7 15-15 11-9 14-10z" fill="#EEB691"/>
<path transform="translate(418,596)" d="m0 0 9 1 17 3 8 1 10 9 5 5 7 9 5 10v2h-36l-12-4-1 1-1 2-14-7-3-2 3-2 1-14 1-5z" fill="#FCFCFC"/>
<path transform="translate(645,582)" d="m0 0 8 1 6 3-1 3-12 6-14 10-6 5h-2v2l-11 9-6 7h-2l-2 4-7 8h-2l-2 4-8 10h-2l-2 4-4 5-1 2-4 2-7-8-1-3 9-10 7-8 12-13 16-17 10-9 16-11z" fill="#EEB792"/>
<path transform="translate(734,333)" d="m0 0 8 6 8 8 7 8-5 4-1 21-2 10h-18l-6-2-1-2v-10l8-36z" fill="#17689F"/>
<path transform="translate(733,758)" d="m0 0 4 2 19 19-3 1-2 19-3 14h-17l-4-2-1-5v-14l6-33z" fill="#17689F"/>
<path transform="translate(562,229)" d="m0 0 3 4 5 13-1 4-11 11h-2v2l-7 6-6 17-6 11-6 4-5 2h-5l3-9 11-22 14-23z" fill="#161717"/>
<path transform="translate(542,682)" d="m0 0 1 4-8 16-4 5-7 2-11 2-5 5-3 7-13-5-14-11-2-3 23-4 15-4 16-7z" fill="#FCFAF9"/>
<path transform="translate(170,355)" d="m0 0 10 2 3 2h8l8-1v5l-5 5-3 6 1 9 8 1 11-5 2 1v2l-10 7-8 8-4 6-5-5-14-20-6-13-1-6z" fill="#262727"/>
<path transform="translate(412,627)" d="m0 0 5 1 12 6 2 3-1 3-18-6-5-1h-22l-16 5-12 5-7 4-9 3-7 9-6 13-2 10v20l3 16 5 13 6 11-5-2-6-14-5-17-2-13v-24l3-17 3-7 16-9 8-2 12-1 18-8h23z" fill="#1970B7"/>
<path transform="translate(462,577)" d="m0 0 5 1 23 12 24 14 17 12 15 14 8 10 2 4-1 4-4 4-5-1-8-11-12-14v-2h-2v-2h-2v-2h-2v-2h-2l-7-8-13-10-5-3v-2h-3v-2l-5-1-10-6-10-5-3-2z" fill="#EFB892"/>
<path transform="translate(400,700)" d="m0 0 30 4 3 1v21l-4 12-5 5-5 3-2-16-6-12-4-9-4-5-3-2z" fill="#EEB793"/>
<path transform="translate(566,663)" d="m0 0 4 2v4l-7 7-8 10-4 8-5 16-5 8-9 7-4 3h-2l-2 5-3 12h-2v-16l3-11 3-3h2l2 4h2v-2h2l7-14 7-17 6-10h2v-2h2l2-4 5-5z" fill="#161616"/>
<path transform="translate(649,707)" d="m0 0 4 5 5 13v9l-9 11-5 5-14 2 3-9z" fill="#161718"/>
<path transform="translate(140,324)" d="m0 0 2 2 4 10-3 1h-6l-6 4-2 2v6l5 11 3 20 1 14-4-4-8-15-4-13-1-9 2-11 6-10 7-6z" fill="#262829"/>
<path transform="translate(647,286)" d="m0 0 4 4 6 13 1 7-7 8-10 10-6 1h-5l1-7z" fill="#161718"/>
<path transform="translate(776,749)" d="m0 0 6 1 7 7 12 9 7 3 10 9 5 3 20 6 8 4 3 5v6l-10-3-14-7-6-5v-2l-4-2-11-9-7-5-2 1-3 4-13-12-8-12z" fill="#17689F"/>
<path transform="translate(786,765)" d="m0 0 4 2 8 7-2 11-4 4-11 4h-6l-4-4-3-6-5-5 10-2 12-6h2z" fill="#FCFBF9"/>
<path transform="translate(428,631)" d="m0 0 9 2 6 2h25l12 2 6 12 2 5h2l6 9-1 2-9-7v-2l-3-1-7-9-16-4-29-1z" fill="#EFB792"/>
<path transform="translate(789,346)" d="m0 0h3l5 6-1 9-6 5-6 3-6 1-5-3-6-9-3-3 12-2 12-6z" fill="#FCFBFA"/>
<path transform="translate(374,321)" d="m0 0 17 4 7 2 34 3 16 4v1l-28 1h-16l-10-2-16-8-5-3z" fill="#17689F"/>
<path transform="translate(473,704)" d="m0 0 4 1 12 10 10 5 5 2 2 2-1 12-4 9-1-3 3-7v-11h-6l-3 4-4 11h-1l1-17-3 3-8 17-1-4 4-15 1-5-2-1-5-5-2-4h-2v-2l-2 1h-36l1 2v15l-2 2v-21h28z" fill="#17689F"/>
<path transform="translate(412,627)" d="m0 0 5 1 12 6 2 3-1 3-18-6-5-1h-22l-16 5-9 4-3-1h2v-2h-7v-2l12-1 18-8h23z" fill="#186EB1"/>
<path transform="translate(823,364)" d="m0 0h11l13 2 4 2 4 8v5l-14-3-10-6-8-7z" fill="#17689F"/>
<path transform="translate(287,352)" d="m0 0h2l-1 8-7 12-10 11-7 4-7-3 5-5 9-8h2l2-4 11-13z" fill="#EEB691"/>
<path transform="translate(506,730)" d="m0 0 2 4 2 5v5l-8 10-7 13-2 1 1-8 7-17 3-7z" fill="#161616"/>
<path transform="translate(296,381)" d="m0 0h15l15 3 10 4v1l-16-1-18-1-7-2z" fill="#EEB691"/>
<path transform="translate(412,627)" d="m0 0 5 1 12 6 2 3-1 3-18-6-14-2v-1l6-2 1-1z" fill="#186EB2"/>
<path transform="translate(778,326)" d="m0 0 5 2 15 15v2l3 1-3 1-1 5-5-4-14-20z" fill="#17689F"/>
<path transform="translate(665,665)" d="m0 0h1l5 23v4l-4-1-5-6-2-3 1-7z" fill="#EFB792"/>
<path transform="translate(322,676)" d="m0 0h1l1 7h1l1 19 3 16 5 13 6 11-5-2-6-14-5-17-2-13z" fill="#1769A2"/>
<path transform="translate(394,684)" d="m0 0h2l-2 4-4 6-8 5-7 2h-8l-1-2 8-3 10-4z" fill="#EEB691"/>
<path transform="translate(665,246)" d="m0 0h1l2 19 1 5-5-1-3-4-2-6z" fill="#EFB792"/>
<path transform="translate(702,235)" d="m0 0 4 1 7 6 6 9 3 7-1 3-7-9-5-7v-2h-2z" fill="#EEB691"/>
<path transform="translate(376,631)" d="m0 0 5 2-4 2-16 6-4 1 2-1v-2h-7v-2l12-1z" fill="#17689F"/>
<path transform="translate(322,676)" d="m0 0h1l1 7h1l1 21-1 5h-1l-2-13z" fill="#186BAA"/>
<path transform="translate(521,664)" d="m0 0 3 2v7l-4 6-5-1 4-6z" fill="#EEB691"/>
<path transform="translate(391,700)" d="m0 0h2l-1 6-4 2v2h-3v2l-3-1h2l2-4 4-6z" fill="#EEB691"/>
<path transform="translate(462,577)" d="m0 0 5 1 9 5-1 2-5-1-8-5z" fill="#F2BB95"/>
<path transform="translate(238,353)" d="m0 0 4 2-8 10-2-1z" fill="#1E6CA3"/>
<path transform="translate(322,676)" d="m0 0h1l1 7h1v8l-3 1z" fill="#17689F"/>
</svg>
