<?xml version="1.0" encoding="UTF-8"?>
<svg version="1.1" viewBox="0 0 1000 997" width="1280" height="1280" xmlns="http://www.w3.org/2000/svg">
<path transform="translate(0)" d="m0 0h1e3v997h-1e3z" fill="#FCFCFC"/>
<path transform="translate(642,367)" d="m0 0h17l6 4 2 3v9l-2 3 1 13v14l-1 18-3 17-4 8-5 4h-3v5l13-3 28-2 29-3 19-5 14-1 22-10 11-2 2 1h16l8-1h9l3 3-2 4-10 4-5 4-3 5-12 6 19-3 7-5 9-4 10-6 12-3 15-3h10l4 2-1 7-16 8-11 9-12 4-8 4-14 3-10 6-17 9-29 11-16 6-14 8-16 5-21 3h-5v2h-2l-2 4-8 8h-2l-4 8-13 16-11 13-8 14-9 20 14-2 45 1-5 10-8 13-8 19-9 12-3 5 22-5 4 1-7 10-4 6-13 9-2 1h-23l-33-3-17-3h-23l-2 4-2 1v-22l7-15 2-9v-14l-3-7-3-3-5-2-13-1-12 2-10 4-7 6-3 9v20l2 10-3 17-1 2-7-1-12-6-5-6-3-10-1-8v-18l3-10 6-8 14-14 9-7 12-14 10-14 8-20 4-11-3-6-2-13v-12l3-9 10-19 8-8 8-4 13-4h8l4-3 7-2 4-4h2v-2h2l3-24-4-6-2-6-2-10-2-5v-7l7-18 4-4 16-5z" fill="#FBCAA2"/>
<path transform="translate(192,261)" d="m0 0 4 2 11 23 8 13 4 5 13 9 14 7 8 1 8-4 1-1v-10l-5-32 9 6 5 5 12 22 3 10 2 12v12l-7 25-3 37-5 44 1 9 9 23 6 20 6 35 11 80-6 4-13 4-16 2-20-1-14-3-5-2-5-17-10 29h-16l-20-2-18-4-12-6-5-4 4-25 6-54 4-1-1-7-1-2 1-17 4-31 5-14 5-11 2-7v-18l-1-30-4-15-3-8 2-11 5-19 6-7 5-5 5-7 3-9v-15l-3-16-5-16 1-5z" fill="#262727"/>
<path transform="translate(666,505)" d="m0 0h2l2 7 3 22v9l-10 14-12 14-9 12-11 23-2 5 14-2 45 1-5 10-8 13-8 19-9 12-3 5 22-5 4 1-7 10-4 6-13 9-2 1h-23l-33-3-17-3h-23l-2 4-2 1v-22l7-15 2-9v-14l-3-7-3-3-5-2-13-1-12 2-10 4-7 6-3 9v20l2 10-3 17-1 2-7-1-12-6-5-6-3-10-1-8v-18l3-10 6-8 14-14 9-7 12-14 10-14 8-20 4-11 8 2h20l9-3 8-7 3-5 25-5 6-1 5 6 4 2h14l10-5 4-8 2-9z" fill="#1A74BF"/>
<path transform="translate(192,261)" d="m0 0 4 2 11 23 8 13 4 5 13 9 14 7 8 1 8-4 1-1v-10l-5-32 9 6 5 5 12 22 3 10 2 12v12l-7 25-3 37-5 44-2 7-6 3-5 1h-23l-30-5-25-6-6-2-2-48-4-15-3-8 2-11 5-19 6-7 5-5 5-7 3-9v-15l-3-16-5-16 1-5z" fill="#1A74BF"/>
<path transform="translate(182,266)" d="m0 0 3 1v2h2l6 21 2 11v15l-4 10-8 11-6 5-4 13-4 16 1 6 5 15 1 5 1 30v18l-4 12-7 16-3 18-3 26v8l2 5-1 5-5-1-5-6-2-11h-2v25l1 9h-4l-10-5-7-7-4-13v-15l2-13v-34l-3-24v-25l5-27 1-52 3-19 5-19 6-12 6-7 12-7 20-5z" fill="#FBCAA2"/>
<path transform="translate(688,609)" d="m0 0 17 1 15 4 8 6 5 6 1 3v13l-3 12-7 16-11 21-8 12-9 13-7 11-6 11-7 13 4 2 4 6 3 7 18 11 21 4 6 7 1 8-4 5-5 2-19 1h-14l-22-3h-10l-16 2-11-1-6-3-2-2 1-7 5-17 2-12 4-4 9-1 2-6 7-14 10-36 6-20 9-14 1-1-12 2-14 3 3-6 9-12 8-19 13-22z" fill="#FBC9A1"/>
<path transform="translate(540,616)" d="m0 0 13 1 8 4 3 5 1 4v14l-3 12-6 12v23l-3 20-3 10-9 23-2 7-2 18-1 3 8 20 10 19 5 13v7l-4 3-8 2-9 1h-10l-15-3-5-2-1-2 1-40 6-10 1-8-2-12-6-39-2-33 4-20-2-10v-20l3-9 8-7 10-4z" fill="#FBC9A2"/>
<path transform="translate(244,162)" d="m0 0h15l6 4 2 4v8l-3 4 2 12v13l-2 25-3 14-4 6-4 3h-3l1 12 5 4 3 5 5 30v10l-5 4-5 2-8-1-16-8-13-10-7-10-12-23-4-8 1-4 5-3 7-6 2-8 1-17-4-7-2-12-3-7v-7l6-16 4-5 17-6z" fill="#FBCAA2"/>
<path transform="translate(246,622)" d="m0 0 26 1h10l1 1v23l3 17v48l1 21v19h9l14 15 10 7 16 5 11 2 1 6-3 7-6 5-10 2h-26l-9-1h-37l-5-3-1-2v-8l2-8 2-16 2-2h5l-5-35-9-32-4-16-1-15 3-21 1-4v-9z" fill="#FBC9A1"/>
<path transform="translate(643,609)" d="m0 0 45 1-5 10-8 13-8 19-9 12-3 5 22-5 4 1-7 10-4 6-13 9-2 1h-23l-33-3-17-3h-23l-2 4-2 1v-22l7-15 2-9 1-10 11 2h9l10-2 14-7 10-8 9-8z" fill="#262727"/>
<path transform="translate(864,441)" d="m0 0h10l4 2-1 7-16 8-11 9-12 4-8 4-14 3-10 6-17 9-29 11-16 6-14 8-16 5-21 3h-5v2h-2l-2 4-8 8h-2l-2-6-4-27v-3l9-4 34-13 23-11 6-4h33l9-3 10-4 19-3 7-5 9-4 10-6 12-3z" fill="#EEB58F"/>
<path transform="translate(157,621)" d="m0 0 10 3 27 5-2 11-4 13v27l-3 16-14 42-6 28-1 6-19 1-3-37v-58l3-14 8-22 3-7z" fill="#FBC9A1"/>
<path transform="translate(642,367)" d="m0 0h17l6 4 2 3v9l-2 3 1 13v14l-1 18-3 17-4 8-5 4-4 1-9-3-13-7-8-7-6-13-5-5-3-8-2-10-2-5v-7l7-18 4-4 16-5z" fill="#FBC9A1"/>
<path transform="translate(272,283)" d="m0 0 10 3 6 4v2l3 1 5 10v20l-1 7v22l2 28 6 14 2 13 4 44 2 11 1 22 3 7 5 12 2 10v14l-6 15-4 6-5 1-5-1v-5h-2l-2-6 1-9 1-4v-16l-1-2-2-24-4-12-11-26-6-15 1-16 3-33 1-14 7-25v-12l-3-17-8-16-5-9z" fill="#FBCBA4"/>
<path transform="translate(676,751)" d="m0 0 4 2 4 6 3 7 18 11 21 4 6 7 1 8-4 5-5 2-19 1h-14l-22-3h-10l-16 2-11-1-6-3-2-2 1-7 5-17 2-12 4-4 8-1-1 4-2 5 4 4 9-1 10-5 9-8z" fill="#1A74BF"/>
<path transform="translate(287,752)" d="m0 0h9l14 15 10 7 16 5 11 2 1 6-3 7-6 5-10 2h-26l-9-1h-37l-5-3-1-2v-8l2-8 2-16 2-2h5l6 9 1 1h5l10-9 3-4z" fill="#1A74BF"/>
<path transform="translate(167,373)" d="m0 0 2 1 6 18 1 5 1 30v18l-4 12-7 16-3 18-3 26-2 3-2-16-4-7-3-3-3-5v-14l5-45 1-28 4-10 10-16z" fill="#FCFCFC"/>
<path transform="translate(524,771)" d="m0 0h10l3 3 7 18 10 19 5 13v7l-4 3-8 2-9 1h-10l-15-3-5-2-1-2 1-40 6-10 1-7z" fill="#1A74BF"/>
<path transform="translate(508,601)" d="m0 0 4 1 10 9 9 6-3 2-10 4-7 6-3 9v20l2 10-3 17-1 2-7-1-12-6-5-6-3-10-1-8v-18l3-10 6-8 14-14z" fill="#262727"/>
<path transform="translate(149,780)" d="m0 0h7l11 7 6 9 7 15 6 16 1 4-5 5-7 3-5 1h-23l-8-3-1-2v-9l1-4v-14l-2-14 3-5 4-3h2l2-5z" fill="#1A74BF"/>
<path transform="translate(244,162)" d="m0 0h15l6 4 2 4v8l-3 4-4 1-18 1-5 1-4 6-6 5-3 10-3 5-2 6-2-1-4-9-4-1-4 2-4-10v-7l6-16 4-5 17-6z" fill="#262727"/>
<path transform="translate(642,367)" d="m0 0h17l6 4 2 3v9l-3 4-23 2-4 1-7 8-3 3-3 10-2 2-3 8-2-1-4-8-4-1-4 1-4-9v-7l7-18 4-4 16-5z" fill="#262727"/>
<path transform="translate(612,430)" d="m0 0 2 1 7 14 9 7 13 6 6 2v7l-12 5-11 2-17 1-6 2-8 2v-2l9-5 2-2-7-3-10-2 4-3 7-2 4-4h2v-2h2l3-23z" fill="#EEB58F"/>
<path transform="translate(315,495)" d="m0 0h2l3 8 2 10v14l-6 15-4 6-5 1-5-1v-5h-2l-2-6 1-9 1-4 1-14 3 3 3 7 1 8 3 2 1-1z" fill="#EEB58F"/>
<path transform="translate(786,467)" d="m0 0 2 1-7 6-8 3-6 1-26 1-15 6-15 7-17 9-6 3-13 2-7 1v-3l9-4 34-13 23-11 6-4h33l9-3z" fill="#E0A57B"/>
<path transform="translate(656,508)" d="m0 0h5l1 4-3 9-4 5-9 4h-14l-6-4-2-2 1-4 16-7 7-4z" fill="#EEB792"/>
<path transform="translate(217,236)" d="m0 0 5 5 8 6 10 5 9 3v16l-2 4-3-9-11-6-3-2v-2l-4-2-7-10-2-5z" fill="#E0A57B"/>
<path transform="translate(315,495)" d="m0 0h2l3 8 2 10v14l-6 15-4 6h-1l1-9 2-9-2-1z" fill="#EFB690"/>
<path transform="translate(617,442)" d="m0 0h2l5 6 14 8 10 3 1 1v7l-5 2-6-1-13-10-6-9z" fill="#DFA47A"/>
<path transform="translate(812,439)" d="m0 0h9l3 3-2 4-10 4-8 4-11 2 3-4 4-2-17 1 1-2 20-4 1-4z" fill="#ECB38C"/>
<path transform="translate(567,524)" d="m0 0h13l12 3-3 6-5 5h-3l-6-8-12-4z" fill="#E0A67D"/>
<path transform="translate(870,442)" d="m0 0h3l3 5v4l-10 4h-14v-3h2v-2l5-3 10-1z" fill="#E0A67C"/>
<path transform="translate(286,752)" d="m0 0 2 4-2 5-9 9-3 2h-5l-5-6-1-4 6 1h10l6-4z" fill="#FCFBFA"/>
<path transform="translate(309,530)" d="m0 0h5v7l-3 12-9-1v-5h2l2-5z" fill="#EEB58F"/>
<path transform="translate(802,445)" d="m0 0h4l1 7-3 2-11 2 3-4 4-2-17 1 1-2z" fill="#E1A67D"/>
<path transform="translate(644,757)" d="m0 0 2 4 12 6-7 3h-6l-5-5 2-5z" fill="#FDFDFD"/>
<path transform="translate(301,510)" d="m0 0 3 3 2 4-2 9-3 7-3 4 1-9 1-4z" fill="#F1B992"/>
<path transform="translate(178,324)" d="m0 0 5 5 2 5-5 5-4 3 1-13z" fill="#E0A67D"/>
<path transform="translate(831,456)" d="m0 0h6l4 9-1 4h-2l-2-4-4 2 3-9-5 3h-6v-2z" fill="#DFA47A"/>
<path transform="translate(598,460)" d="m0 0 4 2 8 8-2 1-9-4-10-2 4-3z" fill="#1A73BD"/>
<path transform="translate(687,505)" d="m0 0h2l-3 10-3 5-5 2 3-9 4-6z" fill="#DFA47A"/>
<path transform="translate(136,524)" d="m0 0 2 3 5 18 1 4h-3l-5-18z" fill="#E2A87F"/>
<path transform="translate(312,530)" d="m0 0h2v7l-3 12h-4l1-6z" fill="#E0A57B"/>
<path transform="translate(513,650)" d="m0 0h1v8l-3 8-2-1-1-7z" fill="#E1A77D"/>
<path transform="translate(607,470)" d="m0 0 4 2h-2l-1 4-13 3v-2l9-5z" fill="#EDB38D"/>
<path transform="translate(131,525)" d="m0 0 2 2 4 15v3l-3-1-3-12z" fill="#E2A77E"/>
<path transform="translate(770,455)" d="m0 0h12l4 3h-12l-8 1z" fill="#E2A77E"/>
<path transform="translate(305,520)" d="m0 0h1v8l-5 10h-2l1-5 4-9z" fill="#DFA47B"/>
<path transform="translate(812,439)" d="m0 0h5l-4 6-6 2 2-7z" fill="#FCCAA2"/>
<path transform="translate(307,529)" d="m0 0h2l-1 7-4 7h-2l1-4z" fill="#DFA47A"/>
<path transform="translate(800,450)" d="m0 0h5l1 3-10 3-3-1 3-3z" fill="#EBB08A"/>
<path transform="translate(819,439)" d="m0 0 4 1 1 4-4 3-5 1 4-7z" fill="#FCCAA2"/>
<path transform="translate(794,447)" d="m0 0h5l-2 3-14 1 1-2z" fill="#EDB38D"/>
<path transform="translate(864,441)" d="m0 0h10l4 2-1 7-3-4-1-4h-9z" fill="#F4BE97"/>
<path transform="translate(808,440)" d="m0 0 1 3-1 3h5l-3 2h-2v2h-2l-1-3 1-2h-2l1-4z" fill="#EAB089"/>
<path transform="translate(127,528)" d="m0 0 2 2 3 11h-4z" fill="#E5AB83"/>
</svg>
